<?xml version="1.0" encoding="iso-8859-1"?>
<!-- Generator: Adobe Illustrator 19.1.0, SVG Export Plug-In . SVG Version: 6.00 Build 0)  -->
<!DOCTYPE svg PUBLIC "-//W3C//DTD SVG 1.1//EN" "http://www.w3.org/Graphics/SVG/1.1/DTD/svg11.dtd">
<svg version="1.1" id="Layer_1" xmlns="http://www.w3.org/2000/svg" xmlns:xlink="http://www.w3.org/1999/xlink" x="0px" y="0px"
   viewBox="0 0 20 500" enable-background="new 0 0 20 500" xml:space="preserve">
<rect display="none" fill="#914D4D" width="20" height="500"/>
<polygon fill="#fff" fill-opacity=".2" points="8.678,3.948 10.226,4.164 10.753,0.198 9.205,-0.028 "/>
<polygon fill="#fff" fill-opacity=".2" points="7.892,9.869 9.443,10.07 9.969,6.104 8.42,5.893 "/>
<polygon fill="#fff" fill-opacity=".2" points="7.106,15.789 8.659,15.976 9.185,12.01 7.634,11.814 "/>
<polygon fill="#fff" fill-opacity=".2" points="6.463,21.728 8.018,21.9 8.445,17.923 6.892,17.741 "/>
<polygon fill="#fff" fill-opacity=".2" points="5.826,27.666 7.381,27.824 7.808,23.846 6.254,23.679 "/>
<path fill="#fff" fill-opacity=".2" d="M5.229,33.609l1.557,0.144c0,0,0.086-0.996,0.172-1.993c0.107-0.994,0.214-1.989,0.214-1.989l-1.556-0.153
  c0,0-0.107,0.997-0.214,1.994C5.316,32.611,5.229,33.609,5.229,33.609z"/>
<polygon fill="#fff" fill-opacity=".2" points="4.734,39.56 6.292,39.69 6.624,35.704 5.067,35.564 "/>
<polygon fill="#fff" fill-opacity=".2" points="4.237,45.513 5.797,45.629 6.129,41.642 4.57,41.516 "/>
<polygon fill="#fff" fill-opacity=".2" points="3.829,51.471 5.39,51.574 5.634,47.58 4.075,47.468 "/>
<polygon fill="#fff" fill-opacity=".2" points="3.468,57.431 5.029,57.522 5.271,53.528 3.711,53.429 "/>
<polygon fill="#fff" fill-opacity=".2" points="3.112,63.393 4.674,63.47 4.911,59.477 3.349,59.391 "/>
<polygon fill="#fff" fill-opacity=".2" points="2.877,69.36 4.44,69.425 4.597,65.426 3.035,65.353 "/>
<polygon fill="#fff" fill-opacity=".2" points="2.643,75.328 4.206,75.38 4.363,71.382 2.8,71.322 "/>
<path fill="#fff" fill-opacity=".2" d="M2.461,81.295l1.563,0.04c0,0,0.019-1,0.039-2c0.013-1,0.065-1.999,0.065-1.999l-1.563-0.048
  c0,0-0.053,1.001-0.065,2.003C2.481,80.293,2.461,81.295,2.461,81.295z"/>
<polygon fill="#fff" fill-opacity=".2" points="2.345,87.267 3.908,87.295 3.986,83.294 2.423,83.258 "/>
<polygon fill="#fff" fill-opacity=".2" points="2.228,93.237 3.792,93.254 3.87,89.253 2.307,89.228 "/>
<polygon fill="#fff" fill-opacity=".2" points="2.207,99.207 3.771,99.213 3.776,95.211 2.212,95.198 "/>
<polygon fill="#fff" fill-opacity=".2" points="2.199,105.178 3.763,105.174 3.768,101.173 2.205,101.17 "/>
<path fill="#fff" fill-opacity=".2" d="M2.223,111.148l1.564-0.014c0,0-0.014-1-0.029-2.001c0.001-1.001,0.003-2.001,0.003-2.001l-1.564,0.008
  c0,0-0.001,1.002-0.003,2.005C2.209,110.146,2.223,111.148,2.223,111.148z"/>
<polygon fill="#fff" fill-opacity=".2" points="2.314,117.119 3.877,117.095 3.816,113.093 2.253,113.111 "/>
<polygon fill="#fff" fill-opacity=".2" points="2.405,123.087 3.968,123.053 3.907,119.052 2.344,119.079 "/>
<polygon fill="#fff" fill-opacity=".2" points="2.564,129.056 4.127,129.013 4.007,125.012 2.444,125.049 "/>
<polygon fill="#fff" fill-opacity=".2" points="2.743,135.023 4.306,134.972 4.186,130.971 2.623,131.016 "/>
<polygon fill="#fff" fill-opacity=".2" points="2.941,140.989 4.503,140.929 4.365,136.929 2.802,136.983 "/>
<polygon fill="#fff" fill-opacity=".2" points="3.197,146.953 4.76,146.886 4.588,142.887 3.025,142.949 "/>
<polygon fill="#fff" fill-opacity=".2" points="3.454,152.916 5.016,152.842 4.844,148.843 3.282,148.912 "/>
<polygon fill="#fff" fill-opacity=".2" points="3.757,158.878 5.319,158.797 5.103,154.8 3.541,154.877 "/>
<rect x="3.971" y="160.793" transform="matrix(-0.9984 0.0557 -0.0557 -0.9984 18.5667 325.0715)" fill="#fff" fill-opacity=".2" width="1.564" height="4.003"/>
<rect x="4.298" y="166.75" transform="matrix(-0.9982 0.0596 -0.0596 -0.9982 20.2061 336.9009)" fill="#fff" fill-opacity=".2" width="1.564" height="4.004"/>
<rect x="4.662" y="172.704" transform="matrix(-0.998 0.0628 -0.0628 -0.998 21.8566 348.7242)" fill="#fff" fill-opacity=".2" width="1.564" height="4.004"/>
<polygon fill="#fff" fill-opacity=".2" points="5.168,182.708 6.728,182.605 6.475,178.609 4.914,178.709 "/>
<polygon fill="#fff" fill-opacity=".2" points="5.574,188.662 7.134,188.555 6.852,184.561 5.292,184.666 "/>
<rect x="5.851" y="190.56" transform="matrix(-0.9975 0.0713 -0.0713 -0.9975 26.9858 384.1601)" fill="#fff" fill-opacity=".2" width="1.564" height="4.004"/>
<rect x="6.274" y="196.511" transform="matrix(-0.9973 0.0737 -0.0737 -0.9973 28.7245 395.9665)" fill="#fff" fill-opacity=".2" width="1.564" height="4.004"/>
<rect x="6.718" y="202.459" transform="matrix(-0.9972 0.0754 -0.0754 -0.9972 30.3951 407.7741)" fill="#fff" fill-opacity=".2" width="1.564" height="4.004"/>
<rect x="7.17" y="208.408" transform="matrix(-0.997 0.0771 -0.0771 -0.997 32.1066 419.5799)" fill="#fff" fill-opacity=".2" width="1.564" height="4.005"/>
<rect x="7.628" y="214.355" transform="matrix(-0.9969 0.0783 -0.0783 -0.9969 33.7412 431.3913)" fill="#fff" fill-opacity=".2" width="1.564" height="4.005"/>
<rect x="8.099" y="220.301" transform="matrix(-0.9969 0.0793 -0.0793 -0.9969 35.3536 443.2039)" fill="#fff" fill-opacity=".2" width="1.564" height="4.005"/>
<rect x="8.572" y="226.249" transform="matrix(-0.9968 0.0801 -0.0801 -0.9968 36.9588 455.0194)" fill="#fff" fill-opacity=".2" width="1.564" height="4.004"/>
<rect x="9.049" y="232.194" transform="matrix(-0.9968 0.0803 -0.0803 -0.9968 38.4273 466.8484)" fill="#fff" fill-opacity=".2" width="1.564" height="4.005"/>
<rect x="9.529" y="238.141" transform="matrix(-0.9968 0.0804 -0.0804 -0.9968 39.9003 478.6801)" fill="#fff" fill-opacity=".2" width="1.564" height="4.005"/>
<rect x="10.008" y="244.086" transform="matrix(-0.9968 0.0801 -0.0801 -0.9968 41.2602 490.5212)" fill="#fff" fill-opacity=".2" width="1.564" height="4.005"/>
<rect x="10.484" y="250.032" transform="matrix(-0.9968 0.0795 -0.0795 -0.9968 42.5364 502.377)" fill="#fff" fill-opacity=".2" width="1.564" height="4.006"/>
<rect x="10.96" y="255.979" transform="matrix(-0.9969 0.0788 -0.0788 -0.9969 43.7891 514.2343)" fill="#fff" fill-opacity=".2" width="1.564" height="4.006"/>
<rect x="11.426" y="261.925" transform="matrix(-0.997 0.0775 -0.0775 -0.997 44.8292 526.1166)" fill="#fff" fill-opacity=".2" width="1.564" height="4.006"/>
<rect x="11.888" y="267.874" transform="matrix(-0.9971 0.0761 -0.0761 -0.9971 45.8495 538.0046)" fill="#fff" fill-opacity=".2" width="1.564" height="4.005"/>
<rect x="12.343" y="273.82" transform="matrix(-0.9972 0.0744 -0.0744 -0.9972 46.733 549.9062)" fill="#fff" fill-opacity=".2" width="1.564" height="4.007"/>
<rect x="12.78" y="279.771" transform="matrix(-0.9974 0.0723 -0.0723 -0.9974 47.4627 561.8293)" fill="#fff" fill-opacity=".2" width="1.564" height="4.006"/>
<polygon fill="#fff" fill-opacity=".2" points="13.363,289.775 14.923,289.665 14.631,285.67 13.071,285.782 "/>
<polygon fill="#fff" fill-opacity=".2" points="13.762,295.725 15.322,295.62 15.055,291.622 13.495,291.73 "/>
<rect x="14.024" y="297.622" transform="matrix(-0.9979 0.0646 -0.0646 -0.9979 48.9429 597.6685)" fill="#fff" fill-opacity=".2" width="1.564" height="4.007"/>
<rect x="14.412" y="303.574" transform="matrix(-0.9981 0.0615 -0.0615 -0.9981 49.1636 609.6412)" fill="#fff" fill-opacity=".2" width="1.564" height="4.007"/>
<rect x="14.768" y="309.53" transform="matrix(-0.9983 0.058 -0.058 -0.9983 49.1564 621.6382)" fill="#fff" fill-opacity=".2" width="1.564" height="4.006"/>
<polygon fill="#fff" fill-opacity=".2" points="15.236,319.53 16.797,319.445 16.563,315.445 15.002,315.534 "/>
<polygon fill="#fff" fill-opacity=".2" points="15.537,325.486 17.099,325.407 16.904,321.404 15.343,321.488 "/>
<rect x="15.729" y="327.399" transform="matrix(-0.9989 0.0464 -0.0464 -0.9989 48.278 657.6841)" fill="#fff" fill-opacity=".2" width="1.564" height="4.007"/>
<rect x="16.011" y="333.357" transform="matrix(-0.9991 0.0421 -0.0421 -0.9991 47.683 669.7189)" fill="#fff" fill-opacity=".2" width="1.564" height="4.008"/>
<polygon fill="#fff" fill-opacity=".2" points="16.323,343.353 17.885,343.295 17.737,339.29 16.175,339.353 "/>
<polygon fill="#fff" fill-opacity=".2" points="16.543,349.31 18.106,349.259 17.958,345.254 16.395,345.31 "/>
<polygon fill="#fff" fill-opacity=".2" points="16.717,355.269 18.28,355.226 18.178,351.22 16.615,351.269 "/>
<polygon fill="#fff" fill-opacity=".2" points="16.858,361.229 18.421,361.194 18.326,357.187 16.763,357.227 "/>
<polygon fill="#fff" fill-opacity=".2" points="16.999,367.189 18.562,367.163 18.467,363.156 16.904,363.188 "/>
<polygon fill="#fff" fill-opacity=".2" points="17.056,373.148 18.619,373.131 18.584,369.123 17.021,369.146 "/>
<polygon fill="#fff" fill-opacity=".2" points="17.108,379.109 18.672,379.102 18.637,375.093 17.073,375.107 "/>
<path fill="#fff" fill-opacity=".2" d="M17.133,385.07l1.564,0.001c0,0,0.005-1.002,0.01-2.004c-0.009-1.002-0.018-2.004-0.018-2.004l-1.564,0.005
  c0,0,0.009,1.001,0.018,2.001C17.138,384.069,17.133,385.07,17.133,385.07z"/>
<polygon fill="#fff" fill-opacity=".2" points="17.088,391.029 18.651,391.041 18.682,387.032 17.118,387.027 "/>
<polygon fill="#fff" fill-opacity=".2" points="17.042,396.99 18.606,397.011 18.636,393.003 17.073,392.989 "/>
<path fill="#fff" fill-opacity=".2" d="M16.934,402.948l1.563,0.032c0,0,0.025-1.002,0.051-2.004c0.021-1.002,0.042-2.004,0.042-2.004l-1.563-0.025
  c0,0-0.021,1-0.042,2C16.96,401.948,16.934,402.948,16.934,402.948z"/>
<polygon fill="#fff" fill-opacity=".2" points="16.783,408.907 18.346,408.95 18.448,404.942 16.885,404.907 "/>
<polygon fill="#fff" fill-opacity=".2" points="16.631,414.864 18.194,414.917 18.296,410.91 16.733,410.864 "/>
<polygon fill="#fff" fill-opacity=".2" points="16.382,420.819 17.944,420.883 18.122,416.878 16.56,416.822 "/>
<polygon fill="#fff" fill-opacity=".2" points="16.117,426.773 17.679,426.848 17.857,422.843 16.295,422.775 "/>
<path fill="#fff" fill-opacity=".2" d="M15.839,432.725l1.561,0.086c0,0,0.064-1,0.102-2.002c0.045-1.001,0.089-2.003,0.089-2.003l-1.562-0.079
  c0,0-0.044,0.999-0.089,1.999C15.903,431.727,15.839,432.725,15.839,432.725z"/>
<polygon fill="#fff" fill-opacity=".2" points="15.453,438.673 17.013,438.771 17.273,434.771 15.712,434.68 "/>
<polygon fill="#fff" fill-opacity=".2" points="15.067,444.62 16.627,444.729 16.886,440.728 15.326,440.626 "/>
<path fill="#fff" fill-opacity=".2" d="M14.642,450.564l1.559,0.121c0,0,0.085-0.999,0.17-1.997c0.065-1,0.13-2,0.13-2l-1.56-0.113
  c0,0-0.065,0.998-0.129,1.996C14.726,449.568,14.642,450.564,14.642,450.564z"/>
<polygon fill="#fff" fill-opacity=".2" points="14.129,456.5 15.687,456.633 16.032,452.639 14.473,452.514 "/>
<polygon fill="#fff" fill-opacity=".2" points="13.617,462.438 15.173,462.583 15.518,458.589 13.961,458.452 "/>
<path fill="#fff" fill-opacity=".2" d="M13.041,468.369l1.556,0.157c0,0,0.108-0.997,0.217-1.993c0.118-0.996,0.191-1.995,0.191-1.995l-1.557-0.149
  c0,0-0.073,0.998-0.191,1.991C13.149,467.375,13.041,468.369,13.041,468.369z"/>
<polygon fill="#fff" fill-opacity=".2" points="12.396,474.292 13.95,474.462 14.384,470.476 12.829,470.315 "/>
<polygon fill="#fff" fill-opacity=".2" points="11.751,480.217 13.304,480.399 13.738,476.414 12.184,476.24 "/>
<path fill="#fff" fill-opacity=".2" d="M11.025,486.131l1.552,0.194c0,0,0.131-0.994,0.263-1.987c0.135-0.993,0.253-1.989,0.253-1.989l-1.553-0.186
  c0,0-0.118,0.993-0.253,1.984C11.156,485.139,11.025,486.131,11.025,486.131z"/>
<polygon fill="#fff" fill-opacity=".2" points="10.243,492.039 11.793,492.246 12.319,488.271 10.768,488.073 "/>
<polygon fill="#fff" fill-opacity=".2" points="9.462,497.945 11.01,498.164 11.536,494.19 9.986,493.979 "/>
</svg>
