<svg xmlns="http://www.w3.org/2000/svg" xmlns:xlink="http://www.w3.org/1999/xlink" version="1.1" xml:space="preserve" width="150" height="60"><rect id="backgroundrect" width="100%" height="100%" x="0" y="0" fill="none" stroke="none" class=""/>
   
    
    
<g class="currentLayer"><title>Layer 1</title><g class="selected" id="svg_4"><path fill="#fff" d="M66.1037000209209,39.0509435218614 l-0.22774179830431424,-1.6883067066723607 c-0.7162731006605719,1.0905742896717632 -1.9397566417086698,1.9311355010788536 -3.6589557689712056,1.9311355010788536 c-3.222869738779664,0 -4.858731173287309,-2.5432364857958114 -4.858731173287309,-6.803516813696705 c0,-4.060557236643481 2.0741027498566407,-7.044908751331563 5.345107190486113,-7.044908751331563 c1.1458932753797513,0 2.1509745871391694,0.4468624559788121 2.9153823896495483,1.2141439720324638 v-6.559251162518576 l3.8866975672755206,0.48637601719880386 v18.463609515523263 H66.1037000209209 zm-0.4856575888129856,-9.717462346574617 c-0.5725874234969666,-0.6932833923143954 -1.1264957089626644,-1.1566697011670217 -1.938319784937034,-1.1566697011670217 c-1.360703362739341,0 -2.4354722279231082,1.367887646597521 -2.4354722279231082,4.314880885223063 c0,3.2688491554720174 0.9792178898699687,3.95566669231405 2.2199437121777,3.95566669231405 c0.8836669145561719,0 1.5568343120676618,-0.5603741409380603 2.1538483006824416,-1.5266603198633049 v-5.586499128120968 zm-13.848425565028267,7.7733951345510395 c-0.9310831880201614,1.3865667846287901 -2.215633141862792,2.1868960064300706 -3.8866975672755206,2.1868960064300706 c-2.363629389341305,0 -3.6445872012548457,-1.5791055920280206 -3.6445872012548457,-4.1309632184536484 V25.690330830803568 h3.8866975672755206 v8.98897596335514 c0,1.3362767976215282 0.34484562519265266,1.7443441207661665 1.1329615644350268,1.7443441207661665 s1.4770887612418613,-0.5100841539307984 2.025968048006833,-1.5015153263596739 v-9.231804757761632 h3.8866975672755206 V39.0509435218614 H51.771053723851274 v-1.9433487836377599 zM35.978560946799426,39.295209173039524 c-3.8435918641264384,0 -6.250326956616824,-2.5504207696539916 -6.250326956616824,-6.983123910151213 c0,-4.209990340893632 2.3823085273725733,-6.865301654877056 6.250326956616824,-6.865301654877056 s6.1641155503186615,2.4570250794976487 6.1641155503186615,6.8897282199948675 c0,4.209990340893632 -2.2968155494602285,6.957978916647582 -6.1641155503186615,6.957978916647582 zm-0.043105703149081576,-11.093971133801954 c-1.5288156050207589,0 -2.291786550759502,1.2629971022680893 -2.291786550759502,4.110847223650744 c0,2.9218482451219114 0.7629709457387436,4.135992217154374 2.291786550759502,4.135992217154374 c1.5273787482491228,0 2.291786550759502,-1.2629971022680893 2.291786550759502,-4.110847223650744 c0,-2.9225666735077285 -0.7644078025103799,-4.135992217154374 -2.291786550759502,-4.135992217154374 zm-8.945870260206057,11.092534277030317 c-2.196235575445705,0 -3.4010399784625345,-1.2414442506935488 -3.4010399784625345,-3.642431916097391 V20.58733400633813 l3.655363627042116,-0.4842207320413494 l-0.011494854173088419,15.303961474695587 c0,0.5460055732217001 0.20259680480068334,0.8175715030609135 0.655925116251858,0.8175715030609135 c0.2629447892093976,0 0.45260988306535643,-0.050289987007261824 0.6207221253467745,-0.12356968236070047 l0.7399812373925668,2.77313356925758 c-0.5718689951111485,0.24785779310721906 -1.3520822221095248,0.42028060570354525 -2.258738845011874,0.42028060570354525 zm-9.080934796739847,-3.0691260642146068 c0.9066566229023486,0 1.614308582933104,-0.22271279960358806 2.521683634221271,-0.8175715030609135 l1.4569727664389567,2.4297248008365635 c-1.169601412111746,0.9655677505394268 -2.3873375260732996,1.4584096232105923 -4.1309632184536484,1.4584096232105923 c-3.891008137590428,0 -6.3149855113404465,-2.6438164598103353 -6.3149855113404465,-6.803516813696705 c0,-4.185563775775819 2.5195283490638167,-7.045627179717379 6.3149855113404465,-7.045627179717379 c1.7673338291123435,0 2.9132271044920945,0.39298032704246033 4.1309632184536484,1.4584096232105923 l-1.4584096232105923,2.428287944064927 c-0.811824075974369,-0.6429934053071336 -1.5690475946265687,-0.9713151776259711 -2.428287944064927,-0.9713151776259711 c-1.6236481519487382,0 -2.6725535952430564,1.1839699798281065 -2.6725535952430564,4.1309632184536484 c0,2.9218482451219114 1.0754872935695847,3.7329538927104617 2.5791579050867126,3.7329538927104617 z" id="svg_1" class=""/><path fill="#FF6860" d="M121.98090458468947,39.295209173039524 c-1.2414442506935488,0 -2.120800594934812,-0.42028060570354525 -2.908198105791368,-1.3614217911251592 v6.041982724729597 l-3.8938818511337003,0.42028060570354525 V25.689612402417747 h3.400321550076716 l0.22989708346176846,1.5216313211625785 c1.0503423000659537,-1.362140219510977 2.4871990717020056,-1.7644601155690713 3.6568004838137513,-1.7644601155690713 c3.3421288508254565,0 4.858731173287309,2.5432364857958114 4.858731173287309,6.803516813696705 c0,4.059120379871846 -2.2170699986344276,7.0441903229457425 -5.345107190486113,7.0441903229457425 zm-0.7830869405416481,-11.093971133801954 c-0.811824075974369,0 -1.5762318784847489,0.5697137099536946 -2.125111165249721,1.5352814604931213 v5.546267138515159 c0.524452721647159,0.7931449379431007 1.1451748469939331,1.1638539850252019 1.9325723578504899,1.1638539850252019 c1.4081196362033308,0 2.432598514379835,-1.2515022480950009 2.432598514379835,-4.197777058334725 c0,-3.2688491554720174 -0.9282094744768897,-4.047625525698758 -2.241496563752241,-4.047625525698758 zm-11.891426642059963,9.1628356327231 c-0.9073750512881665,1.436856771636052 -2.342076537766764,1.9304170726930356 -3.845747149283892,1.9304170726930356 c-2.5303047748510874,0 -4.104381368178382,-1.6832777079716343 -4.104381368178382,-4.085702230147112 c0,-2.8737135432721033 1.9613094932832107,-4.418334572780859 5.8049013574096495,-4.418334572780859 h1.4569727664389567 v-0.4856575888129856 c0,-1.5604264539967518 -0.6250326956616826,-2.1287033071788106 -2.176838009028618,-2.1287033071788106 c-0.811824075974369,0 -2.054705183439554,0.24785779310721906 -3.3191391424792793,0.6932833923143954 l-0.8592403494383589,-2.5762841915434405 c1.5999400152167436,-0.6192852685751384 3.222151310393846,-0.8477454952652709 4.6554159401008075,-0.8477454952652709 c3.6754796218450196,0 5.345107190486113,1.5697660230123864 5.345107190486113,4.615902378880816 v5.100841539307983 c0,1.0151393091608705 0.28952663948466467,1.3075396621888071 0.8865406280994439,1.530252461792395 L112.26272380972905,39.295209173039524 c-1.4799624747851332,-0.12356968236070047 -2.359318819026397,-0.6422749769213152 -2.9563328076411763,-1.929698644307217 zm-0.6875359652278508,-4.386723723804866 h-0.9720336060117888 c-1.7184806988767178,0 -2.6725535952430564,0.6307801227482267 -2.6725535952430564,1.9433487836377599 c0,1.0417211594361373 0.6789148245980346,1.6020953003741978 1.609279584232378,1.6020953003741978 c0.8599587778241773,0 1.5805424487996569,-0.5905481331424175 2.034589188636649,-1.357829649196069 v-2.1868960064300706 zm-9.231804757761632,-3.8866975672755206 c-1.5518053133669356,0 -2.023812762849379,1.420332918762237 -2.4297248008365635,3.4010399784625345 v6.559251162518576 h-3.8866975672755206 V25.689612402417747 h3.400321550076716 l0.25144993503630914,2.5863421889448928 c0.5725874234969666,-1.8075658187181531 1.9354460713937616,-2.8291709833513856 3.3909819810610817,-2.8291709833513856 c0.4777548765689874,0 0.809668790816915,0.11925911204579234 1.2155808288041001,0.24282879440649285 l-0.7284863832194783,3.643868772869027 c-0.40519360960136663,-0.09914311724288762 -0.7845237973132845,-0.24282879440649285 -1.2141439720324638,-0.24282879440649285 zm-10.16001423223852,7.133993871172996 c0.4296201747191795,0 0.8592403494383589,-0.12356968236070047 1.360703362739341,-0.4454255992071762 l1.2644339590397256,2.5001307826467296 c-0.9540728963663384,0.6932833923143954 -2.251554561153693,1.0129840240034165 -3.3981662649192623,1.0129840240034165 c-2.7925311356746665,-0.02442656511781289 -4.129526361682013,-1.5194760360051247 -4.129526361682013,-4.615183950494998 v-6.07359357370559 h-1.9433487836377599 V25.688175545646114 h1.9433487836377599 v-2.6725535952430564 l3.643868772869027,-0.4856575888129856 v3.158211184056041 h3.158211184056041 l-0.7284863832194783,2.9153823896495483 h-2.4297248008365635 v6.07359357370559 c0,1.2644339590397256 0.47057059271080715,1.5474947430520274 1.2586865319531813,1.5474947430520274 zm-11.174435113013573,-5.424134312926094 c2.50731506650491,0.7435733793216566 3.915434702708241,1.833429240607602 3.915434702708241,4.186282204161636 c0,2.7242804390219537 -2.509470351662364,4.307696601364883 -5.661215680246043,4.307696601364883 c-2.196235575445705,0 -4.03182010121076,-0.7672815160536518 -5.273264351904309,-1.9311355010788536 l1.8391766676941463,-2.1301401639504465 c0.9540728963663384,0.768718372825288 2.124392736863902,1.2881420957717202 3.365836987557451,1.2881420957717202 c1.1458932753797513,0 1.8391766676941463,-0.4454255992071762 1.8391766676941463,-1.2385705371502767 c0,-0.8908511984143521 -0.382922329641008,-1.1638539850252019 -2.67470888040051,-1.8319923838359655 c-2.50731506650491,-0.7435733793216566 -3.74804088881264,-2.080568605329003 -3.74804088881264,-4.111565652036562 c0,-2.253709846311147 1.9397566417086698,-3.8938818511337003 5.138199815370521,-3.8938818511337003 c1.83773981092251,0 3.527483374366507,0.5014630133009822 4.696366358092434,1.4914573289582216 l-1.3844114994713361,2.2034198593038856 c-0.9784994614841513,-0.6437118336929515 -2.029560189935923,-1.0158577375466886 -3.127318763465866,-1.0158577375466886 c-1.027352591719777,0 -1.5280971766349407,0.3965724689715504 -1.5280971766349407,0.9914311724288758 c0,0.6932833923143954 0.33478762779120025,0.9914311724288758 2.60214761343289,1.6839961363574532 z" id="svg_2" class=""/><path fill="#fff" d="M136.55781653293724,39.5373195390602 c-1.7637416871832536,0 -2.6725535952430564,-1.2127071152608278 -2.6725535952430564,-3.158211184056041 c0,-1.8391766676941463 0.8980354822725325,-2.9146639612637313 2.6725535952430564,-2.9146639612637313 c1.7637416871832536,0 2.6725535952430564,0.9698783208543349 2.6725535952430564,2.9153823896495483 c0,1.8391766676941463 -0.8980354822725325,3.15892961244186 -2.6725535952430564,3.15892961244186 zm0,-4.858731173287309 c-0.609227271173686,0 -0.9720336060117888,0.5460055732217001 -0.9720336060117888,1.700519989231267 c0,1.198338547544467 0.3628063348381031,1.7012384176170852 0.9720336060117888,1.7012384176170852 s0.9720336060117888,-0.5460055732217001 0.9720336060117888,-1.700519989231267 c0,-1.1854068365997428 -0.3628063348381031,-1.6998015608454495 -0.9720336060117888,-1.6998015608454495 zm-5.830764779299097,-1.2141439720324638 h1.9440672120235778 v6.072875145319772 H130.7263333252523 v-6.07359357370559 zm0.9727520343976069,-0.9727520343976069 c-0.6415565485354974,0 -0.9720336060117888,-0.3836407580268259 -0.9720336060117888,-0.9720336060117888 s0.3304770574762919,-0.9720336060117888 0.9727520343976069,-0.9720336060117888 c0.6415565485354974,0 0.9720336060117888,0.3836407580268259 0.9720336060117888,0.9720336060117888 s-0.3304770574762919,0.9720336060117888 -0.9720336060117888,0.9720336060117888 zm-3.158211184056041,7.045627179717379 c-0.6415565485354974,0 -0.9720336060117888,-0.3836407580268259 -0.9720336060117888,-0.9720336060117888 s0.3304770574762919,-0.9720336060117888 0.9720336060117888,-0.9720336060117888 s0.9720336060117888,0.38435918641264405 0.9720336060117888,0.9727520343976069 s-0.3304770574762919,0.9720336060117888 -0.9713151776259711,0.9720336060117888 z" id="svg_3" class=""/></g></g></svg>