<svg xmlns="http://www.w3.org/2000/svg" width="150" height="72" version="1.1"><rect id="backgroundrect" width="100%" height="100%" x="0" y="0" fill="none" stroke="none" class=""/>


<g class="currentLayer"><title>Layer 1</title><g class=""><g id="#ffffffff" class="">
<path fill="#ffffff" opacity="1.00" d="M53.3539538577353,0.14814814925193787 L54.15913588770257,0.14814814925193787 C56.691674238368876,0.5885896015417305 58.03364428831434,3.6785616652623045 56.73296562452104,5.86700513132721 C55.82455512917335,7.814582178171135 52.947921893905644,8.31696070968918 51.50272337857976,6.679069058986515 C49.431272173279325,4.655791137530281 50.49796631554367,0.7675189415344585 53.3539538577353,0.14814814925193787 z" id="svg_1"/>
<path fill="#ffffff" opacity="1.00" d="M63.105602887338975,2.687568397610272 C65.53491277262486,0.7055818623062063 68.45971929173676,4.917303249827346 65.8858895549183,6.541431105145954 C63.456579669632404,8.55782712891016 60.49048176436833,4.311696252928881 63.105602887338975,2.687568397610272 z" id="svg_2"/>
<path fill="#ffffff" opacity="1.00" d="M39.473166212914805,3.692325460646361 C43.54036774890336,2.777033067606636 46.836796743384774,7.649416633562463 45.13696801345386,11.255531024185137 C44.070273871189514,14.428085860210048 39.658977450599565,15.715000728619287 37.17461238377746,13.375155513329762 C33.80936441237576,10.704979208822898 35.12380687155311,4.442452309077413 39.473166212914805,3.692325460646361 z" id="svg_3"/>
<path fill="#ffffff" opacity="1.00" d="M70.07696524936334,8.80557544582317 C71.23312406162405,7.477369191261763 73.31833906230852,9.55570229425422 72.01766039851523,10.725624901898982 C70.8752653816386,12.15017772414878 68.65241242711355,9.961734258083872 70.07696524936334,8.80557544582317 z" id="svg_4"/>
<path fill="#ffffff" opacity="1.00" d="M25.296456967337114,14.379912576365852 C30.1344310448328,12.28093378029731 35.502311244614646,17.311600993169783 34.449380897734365,22.273449229121972 C33.99517565006052,26.87055688739668 28.35890144028958,30.001820337269425 24.35363698352928,27.448636293527034 C19.295442179888695,24.74405050056003 19.83223019986688,16.28619823705761 25.296456967337114,14.379912576365852 z" id="svg_5"/>
<path fill="#ffffff" opacity="1.00" d="M72.74025965617818,14.276684110985434 C73.31833906230852,12.996651140268224 75.36914457453288,15.026810959416487 74.12352109227581,15.611772263238866 C73.35274855076868,16.685348303195234 71.61851033237761,15.116275629412849 72.74025965617818,14.276684110985434 z" id="svg_6"/>
<path fill="#ffffff" opacity="1.00" d="M49.004594516373594,24.234790071349956 C52.84469342852522,24.31049094596226 57.407391598339785,23.587891688299326 60.39413519667994,26.602162877407586 C63.60109952116499,30.125694495725927 63.60109952116499,36.27811103239897 60.36660760591183,39.78787885533325 C57.379864007571676,42.7746224536734 52.83092963314116,42.05202319601046 49.004594516373594,42.12772407062277 C49.004594516373594,36.161118771634484 49.004594516373594,30.201395370338236 49.004594516373594,24.234790071349956 M49.692784285576394,24.922979840552756 C49.692784285576394,30.42849799417516 49.692784285576394,35.934016147797564 49.692784285576394,41.43953430141997 C53.1337331315904,41.3982429152678 57.21469846296301,41.96255852601409 59.88487476746987,39.25797273304709 C62.850972672733946,36.03036271548596 62.82344508196583,30.38032471033096 59.90552046054596,27.125187102001718 C57.24910795142314,24.393073718266596 53.14061502928242,24.964271226704927 49.692784285576394,24.922979840552756 z" id="svg_7"/>
<path fill="#ffffff" opacity="1.00" d="M34.38056192081408,39.450665868423876 C31.731031309383297,35.95466184087365 33.69237215161128,30.166985881878094 38.06925908374109,29.265457284222425 C42.102051131269505,28.054243290425497 46.575284631087705,31.522719727207615 46.210544053410224,35.76196870549686 C42.06764164280936,35.81014198934106 37.9247392322085,35.73444111472875 33.78183682160765,35.82390578472512 C33.960766161600375,39.30614601689129 37.3604236214622,42.14836976369885 40.835781955936355,41.38447911988374 C43.03798921738531,41.1780221891229 44.2629670065663,39.20979944920289 45.73569311266029,37.83341991079729 C44.483187732711194,42.74709486290529 37.06450202070501,43.54539499518054 34.38056192081408,39.450665868423876 M33.761191128531564,35.39034623012735 C37.73204609683172,35.34905484397518 41.69601916743986,35.3765824347433 45.66687413574001,35.36281863935924 C45.33654304652267,32.25908278025461 42.59754776509552,29.45126852190718 39.35617395215033,29.774717713432494 C36.34190276304207,29.86418238342886 34.05023083159674,32.49994919947559 33.761191128531564,35.39034623012735 z" id="svg_8"/>
<path fill="#ffffff" opacity="1.00" d="M63.42905207886429,28.83877962731669 C64.42692724420834,29.10717363730578 64.57832899343296,30.16010398418607 64.94306957111044,30.951522218769284 C66.18181115567549,34.2479512132507 67.5100174102369,37.49620692388792 68.72123140403383,40.79951781606137 C70.51052480396112,37.097056857750296 71.85249485390656,33.19502086637042 73.55920548152952,29.458150419599214 C73.79319000305846,29.313630568066625 74.25427714842434,29.024590865001446 74.48137977226126,28.880071013468857 C72.33422769234855,34.30988829247895 69.94620919321483,39.636477106108636 67.75088382945788,45.04564869204264 C67.3654975587043,45.85771261970195 67.14527683255942,46.88311537581412 66.15428356490739,47.16527318118727 C66.78741815257396,45.36909788356795 67.59260018254125,43.64174156286894 68.37713651943244,41.9143852421699 C66.83559143641816,37.516852616964 64.97059716187857,33.23631225252259 63.42905207886429,28.83877962731669 z" id="svg_9"/>
<path fill="#ffffff" opacity="1.00" d="M76.70423272678632,28.83877962731669 C77.08273709984786,29.74030822497236 77.29607592830072,30.683128208780193 77.35113110983694,31.667239578740197 C79.2574167705287,27.971660518121162 85.6713454194988,28.21940883503417 87.04084306021237,32.238437087178525 C87.95613545325209,35.43851951397155 87.3918198425058,38.8175312807573 87.51569400096231,42.10019647985466 L86.86879561791167,42.14148786600683 C86.74492145945517,38.96893302998191 87.30235517250945,35.693149728576586 86.47652744946608,32.589413869471954 C85.24466776259307,28.515330435791377 78.55546320594185,28.825015831932635 77.44747767752534,32.864689777153075 C76.87628016908701,35.906488557029455 77.35113110983694,39.04463390459422 77.1928474629203,42.12772407062277 L76.5528309775617,42.12772407062277 C76.66294134063413,37.70266385464876 76.33949214910884,33.25695794559867 76.70423272678632,28.83877962731669 z" id="svg_10"/>
<path fill="#ffffff" opacity="1.00" d="M92.9661569730485,30.277096244950545 C96.0148376506169,28.01983380196536 100.85969362580461,29.01770896730942 102.63522323034785,32.43113022255531 C102.6283413326558,31.206152433374328 102.5801680488116,29.933001360349145 103.23394832955428,28.83877962731669 C103.48169664646728,31.87369650950104 103.32341299955064,34.92237718706945 103.37846818108684,37.9572940692538 C103.33029489724267,39.416256379963734 103.61245270261581,40.97156525836207 102.90361724033693,42.320417205999554 C102.72468790034421,41.13673080297073 102.64898702573188,39.95304439994192 102.66275082111595,38.762476099221075 C100.71517377427202,42.49934654599228 95.09266335988515,43.25635529211536 92.18850253384933,40.242084103007095 C89.42197966165408,37.558144003116176 89.77295644394749,32.47242160870748 92.9661569730485,30.277096244950545 M95.8703177990843,29.822890997276694 C91.61042312771897,30.249568654182436 89.55961761549463,35.78949629626498 92.09215596616093,39.07904339305436 C94.52146585144682,42.733331067521235 100.94227639810894,41.96255852601409 102.29112834574644,37.723309547724845 C104.05977605259764,33.68363560250441 100.18526765198587,28.880071013468857 95.8703177990843,29.822890997276694 z" id="svg_11"/>
<path fill="#ffffff" opacity="1.00" d="M106.81941702710085,42.12772407062277 C107.12910242324213,37.70954575234079 106.2138100302024,33.11931999175811 107.28738607015876,28.818133934240606 C107.34244125169499,29.52008749882747 107.45255161476744,30.91711273030915 107.5144886939957,31.619066294896005 C109.09044326547011,28.068007085809555 114.92629250830986,28.295109709646475 116.06180562749446,32.073271542569856 C117.38312998436386,28.377692481950817 123.3428533856601,27.951014825045075 124.82934328713816,31.694767169508314 C125.90291932709454,35.05313324321798 125.18032006943157,38.66612953153268 125.37989510250038,42.134605968314794 L124.72611482175773,42.11396027523871 C124.58159497022514,38.87946835998555 125.08397350174319,35.57615746781211 124.38890183484835,32.38983883640314 C123.50113703257675,28.776842548088442 117.65840589204497,28.87318911577683 116.7087040105451,32.403602631787194 C116.12374270672272,35.596803160888186 116.55042036362848,38.8932321553696 116.43342810286399,42.12772407062277 L115.77964782212132,42.12772407062277 C115.68330125443292,39.03087010921017 115.95857716211405,35.91337045472148 115.6007184821286,32.83028028869294 C115.25662359752721,30.683128208780193 112.96495166608187,29.334276261142705 110.90038235847346,29.754072020356414 C108.9390415162455,30.029347928037538 107.66589044322032,31.956279281805376 107.54889818245583,33.828155454036995 C107.36996884246311,36.58779642854023 107.5420162847638,39.36120119842751 107.47319730784352,42.12772407062277 L106.81941702710085,42.12772407062277 z" id="svg_12"/>
<path fill="#ffffff" opacity="1.00" d="M128.83460774389846,29.05211845576956 L129.52279751310124,29.04523655807753 C129.52279751310124,33.40835969482328 129.52279751310124,37.76460093387701 129.52279751310124,42.12084217293074 L128.83460774389846,42.134605968314794 C128.83460774389846,37.771482831569045 128.83460774389846,33.415241592515315 128.83460774389846,29.05211845576956 z" id="svg_13"/>
<path fill="#ffffff" opacity="1.00" d="M131.5254297414814,28.769960650396413 C133.76892838908253,30.01558413265348 134.53970093058967,32.69264233485237 136.07436411591192,34.60580989323616 C137.47827124508564,32.55500438101181 138.6069024665782,30.263332449566484 140.53383382034605,28.625440798863824 L140.53383382034605,29.086527944229697 C139.1987456680926,31.144215354146073 137.79483853891892,33.15372948021825 136.47351418204954,35.218298787826654 C137.77419284584283,37.29663189081911 139.1712180773245,39.30614601689129 140.53383382034605,41.343187733731575 L140.53383382034605,41.804274879097456 C138.57249297811808,40.21455651223898 137.46450744970156,37.90223888771757 136.1225373997561,35.830787682417146 C134.53970093058967,37.7370733431089 133.77581028677457,40.44854103376793 131.53231163917343,41.73545590217717 C132.7572894283544,39.47131156149996 134.29195261367667,37.3929784585075 135.6820959474663,35.22518068551868 C134.29883451136868,33.07114670791392 132.76417132604644,31.01345929799754 131.5254297414814,28.769960650396413 z" id="svg_14"/>
<path fill="#ffffff" opacity="1.00" d="M9.777777671813965,40.23520220531507 C9.832832853350189,35.74820491011281 13.397655857820695,31.495192136439496 17.960354027635262,31.178624842606215 C22.708863435134585,30.641836822628026 27.168333139568734,34.619573688620214 27.581247001090414,39.29926411919926 C28.31761005413741,44.323049434379705 24.32610939276117,49.422535624172454 19.199095612200303,49.697811531853574 L17.91218074379107,49.697811531853574 C13.404537755512724,49.18855110264351 9.853478546426272,45.14199525973103 9.777777671813965,40.63435227145269 L9.777777671813965,40.23520220531507 z" id="svg_15"/>
</g><g id="#2571eafe" class="">
<path fill="#2571ea" opacity="1.00" d="M128.31158351930432,23.81499431213625 C130.1559321007678,22.49366995526687 132.04157206838352,25.817626540516397 129.99764845385118,26.746682728940176 C128.18082746315582,27.957896722737104 126.35712457476836,24.785341886712196 128.31158351930432,23.81499431213625 z" id="svg_16"/>
</g></g></g></svg>