<svg xmlns="http://www.w3.org/2000/svg" width="150" height="60" version="1.1"><rect id="backgroundrect" width="100%" height="100%" x="0" y="0" fill="none" stroke="none" class=""/>

<g class="currentLayer"><title>Layer 1</title><g id="#eda52ded" class="selected">
<path fill="#eda52d" opacity="0.93" d="M12.514324309825897,26.291080913543702 C13.074324309825897,24.5310809135437 14.104324309825897,22.2210809135437 16.274324309825897,22.2210809135437 C21.2443243098259,22.041080913543702 26.2643243098259,21.8910809135437 31.214324309825898,22.3710809135437 C33.0643243098259,23.8310809135437 31.624324309825898,26.841080913543703 31.2643243098259,28.8510809135437 C27.054324309825898,31.2110809135437 22.324324309825897,32.4010809135437 18.164324309825897,34.841080913543706 C23.024324309825897,35.5210809135437 27.9243243098259,34.7910809135437 32.804324309825894,34.921080913543705 C31.9243243098259,36.3810809135437 31.6743243098259,39.1910809135437 29.404324309825896,38.9510809135437 C23.7643243098259,39.1610809135437 18.124324309825898,39.0910809135437 12.494324309825897,38.921080913543705 C9.924324309825897,29.881080913543702 21.324324309825897,30.021080913543702 26.324324309825897,26.1210809135437 C21.724324309825896,25.881080913543702 17.124324309825898,26.3210809135437 12.514324309825897,26.291080913543702 z" id="svg_1"/>
<path fill="#eda52d" opacity="0.93" d="M35.764324309825895,22.5610809135437 C37.2543243098259,21.6410809135437 39.264324309825895,22.3510809135437 40.9543243098259,22.2610809135437 C40.834324309825895,27.8010809135437 40.9543243098259,33.3510809135437 40.874324309825894,38.8910809135437 C39.1043243098259,38.9710809135437 37.334324309825895,38.9910809135437 35.5743243098259,38.9810809135437 C35.694324309825895,33.5110809135437 35.2743243098259,28.001080913543703 35.764324309825895,22.5610809135437 z" id="svg_2"/>
<path fill="#eda52d" opacity="0.93" d="M45.2143243098259,26.0710809135437 C44.5043243098259,20.4510809135437 51.9643243098259,21.7310809135437 55.2743243098259,22.951080913543702 C57.7843243098259,27.041080913543702 59.0343243098259,32.2410809135437 62.6843243098259,35.4110809135437 C62.9543243098259,31.2110809135437 62.444324309825895,26.9610809135437 62.944324309825895,22.771080913543702 C64.2743243098259,21.6210809135437 66.3043243098259,22.361080913543702 67.9343243098259,22.2410809135437 C67.5443243098259,27.5310809135437 68.4743243098259,33.0210809135437 67.45432430982589,38.1810809135437 C65.1143243098259,39.851080913543704 61.3843243098259,38.8810809135437 58.554324309825894,38.7910809135437 C54.7543243098259,35.2210809135437 54.3243243098259,29.2210809135437 50.3443243098259,25.8310809135437 C50.0943243098259,29.8910809135437 50.4343243098259,33.9610809135437 50.1643243098259,38.0110809135437 C49.3443243098259,39.8110809135437 46.7443243098259,38.6610809135437 45.2043243098259,39.0110809135437 C45.224324309825896,34.701080913543706 45.154324309825896,30.3910809135437 45.2143243098259,26.0710809135437 z" id="svg_3"/>
<path fill="#eda52d" opacity="0.93" d="M69.9643243098259,25.6410809135437 C70.06432430982589,24.271080913543702 70.5443243098259,22.0810809135437 72.28432430982589,22.201080913543702 C79.14432430982589,22.0810809135437 86.0043243098259,22.1910809135437 92.8643243098259,22.1610809135437 C93.6343243098259,27.6010809135437 87.5043243098259,25.7810809135437 84.20432430982589,26.1510809135437 C83.92432430982589,30.4210809135437 84.1143243098259,34.701080913543706 84.0543243098259,38.9710809135437 C82.2743243098259,38.9910809135437 80.5043243098259,38.9710809135437 78.7243243098259,38.9110809135437 C78.7543243098259,34.6610809135437 78.8843243098259,30.4010809135437 78.6343243098259,26.1610809135437 C75.78432430982589,25.8210809135437 72.67432430982589,26.5110809135437 69.9643243098259,25.6410809135437 z" id="svg_4"/>
<path fill="#eda52d" opacity="0.93" d="M95.0443243098259,22.201080913543702 C100.4343243098259,22.1610809135437 105.8443243098259,21.8910809135437 111.2243243098259,22.291080913543702 C112.8543243098259,22.771080913543702 113.17432430982589,24.5710809135437 113.5543243098259,25.9710809135437 C109.0843243098259,26.1910809135437 104.6043243098259,25.881080913543702 100.1343243098259,26.1610809135437 C100.14432430982589,26.8510809135437 100.1543243098259,28.2110809135437 100.1643243098259,28.9010809135437 C104.42432430982589,28.9010809135437 108.6943243098259,28.8510809135437 112.9643243098259,28.9410809135437 C111.8743243098259,34.8510809135437 104.39432430982589,31.501080913543703 100.2543243098259,32.3310809135437 C100.2143243098259,33.0210809135437 100.1343243098259,34.3910809135437 100.0943243098259,35.0810809135437 C104.70432430982589,35.2310809135437 109.3243243098259,35.091080913543706 113.9343243098259,34.9910809135437 C113.4843243098259,36.3910809135437 113.2143243098259,38.781080913543704 111.3343243098259,38.9010809135437 C105.9043243098259,39.171080913543705 100.45432430982589,38.9710809135437 95.0243243098259,38.9810809135437 C94.9443243098259,33.3910809135437 94.9143243098259,27.791080913543702 95.0443243098259,22.201080913543702 z" id="svg_5"/>
<path fill="#eda52d" opacity="0.93" d="M117.1143243098259,22.1210809135437 C121.9943243098259,20.701080913543702 123.4143243098259,24.1510809135437 122.4643243098259,28.3910809135437 C125.70432430982589,28.681080913543703 128.9743243098259,28.6710809135437 132.21432430982588,28.3910809135437 C132.21432430982588,26.341080913543703 132.2243243098259,24.291080913543702 132.3643243098259,22.2410809135437 C134.0043243098259,22.181080913543703 135.6543243098259,22.1610809135437 137.3043243098259,22.1610809135437 C137.3343243098259,27.771080913543702 137.3043243098259,33.3810809135437 137.3243243098259,38.9910809135437 C135.6443243098259,38.9910809135437 133.9743243098259,38.9710809135437 132.3043243098259,38.921080913543705 C132.1743243098259,36.841080913543706 132.4743243098259,34.6910809135437 131.9843243098259,32.6410809135437 C128.9343243098259,32.4410809135437 125.8543243098259,32.4110809135437 122.8043243098259,32.6510809135437 C122.1343243098259,34.6310809135437 122.5843243098259,36.8510809135437 122.3443243098259,38.9110809135437 C120.6043243098259,38.9810809135437 118.8543243098259,39.0010809135437 117.1143243098259,39.0210809135437 C117.0943243098259,33.3910809135437 117.0843243098259,27.7610809135437 117.1143243098259,22.1210809135437 z" id="svg_6"/>
</g></g></svg>