<?xml version="1.0" encoding="UTF-8"?><!DOCTYPE svg PUBLIC "-//W3C//DTD SVG 1.1//EN" "http://www.w3.org/Graphics/SVG/1.1/DTD/svg11.dtd"><svg xmlns="http://www.w3.org/2000/svg"><symbol id="bulsatcom"><rect width="100%" height="100%" fill="none"/><g class="currentLayer"><title>Layer 1</title><g fill="#b81e24"><path opacity=".9" d="M11.755 20.811h3.54c-.04 1.75-.06 3.5-.11 5.25 3.43-1.23 7.77-.96 9.95 2.34 3.13 4.09.38 10.32-4.5 11.41h-2.82c-8.75-2.11-5.5-12.53-6.06-19m5.39 8.52c-2.81 1.46-2.27 6.07.82 6.82 1.98.8 3.68-.72 4.87-2.11-.01-.78-.02-2.34-.03-3.12-1.38-1.53-3.68-3.07-5.66-1.59zM42.715 20.811h3.48c-.01 6.33-.01 12.67 0 19h-3.49c-.02-6.33-.04-12.67.01-19zM76.585 21.031c.87-.01 2.61-.02 3.48-.02l-.03 4.36c.69 0 2.07.01 2.76.01v3.4l-2.88.12c-.21 3.18.32 6.71 3.84 7.76l.08 3.15h-1.17c-8.65-2.1-5.52-12.36-6.08-18.78zM27.805 25.621c.92.02 2.75.08 3.67.1.04 2.83-.27 5.69.22 8.49.57 2.69 4.85 2.81 5.72.21.59-2.88.22-5.86.28-8.77l3.49.04c.03 5.04 1.22 12.54-5.26 14.12h-2.84c-6.42-1.72-5.36-9.11-5.28-14.19zM49.065 32.571c-2.39-2-1.01-6.09 1.81-6.86 2.82-1.02 5.71.15 8.35 1.12-.56.91-1.12 1.83-1.69 2.74-2.05-.77-4.21-1.29-6.41-.93 1.71 3.33 6.85 1.87 8.29 5.43.96 2.38-1.08 4.4-2.78 5.73l.21.01h-3.55c-2.21-.09-4.17-1.12-6.16-1.95.63-.84 1.26-1.68 1.89-2.53 2.27.78 5.69 2.87 7.24-.15-2.38-.89-5.01-1.25-7.2-2.61zM60.375 31.791c.39-5.07 6.36-7.55 10.64-5.38a13.08 13.08 0 0 1 4.02-1.21c.02 4.87.01 9.74.01 14.61h-4.4l1.02-.41.15-.91c-1.28-.56-2.06-.11-2.36 1.32h-3.56c-3.02-1.55-6.23-4.19-5.52-8.02m4.28 3.07c3.13 4.03 9-.98 6.15-4.97-3.29-3.17-9.28 1.12-6.15 4.97zM86.515 27.591c3.32-3.77 9.33-2.61 12.09 1.23-1.02.6-2.04 1.2-3.05 1.81-2.33-3.06-7.85-1.99-7.47 2.32.62 3.77 5.32 4.07 7.53 1.49.76.47 2.27 1.39 3.02 1.85-1.57 1.47-3.29 2.82-5.36 3.52h-2.2c-5.7-.54-8.66-8.16-4.56-12.22z"/><path opacity=".9" d="M99.045 34.581c-1.42-4.3 2.2-9.27 6.72-9.25 4.46-.44 8.52 3.96 7.67 8.37-.4 3.04-2.94 5.21-5.74 6.11h-2.81c-2.65-.67-5.11-2.5-5.84-5.23m4.63-4.85c-2.89 2.2-.6 7.26 2.97 6.55 2.78-.12 3.5-3.14 3.26-5.42-1.53-1.68-4.33-3.12-6.23-1.13zM117.055 26.991c2.64-2.42 6.54-1.77 9.25.15 3.41-2.84 9.28-2.11 10.99 2.27.91 3.37.33 6.95.45 10.4h-3.49c-.09-3.02.33-6.1-.32-9.07-.82-2.7-5.15-2.42-5.69.31-.31 2.91-.11 5.84-.11 8.76h-3.69c-.11-3.12.41-6.34-.3-9.39-1.17-2.33-3.7-1.4-5.54-.6-.31 3.32-.32 6.66-.3 9.99h-3.52c.32-4.24-1.35-9.59 2.27-12.82z"/></g></g></symbol><symbol id="cloudstrap"><rect width="100%" height="100%" fill="none"/><g class="currentLayer"><title>Layer 1</title><g class="selected"><path fill="#fff" d="M66.104 39.05l-.228-1.687c-.716 1.09-1.94 1.93-3.659 1.93-3.223 0-4.859-2.542-4.859-6.803 0-4.06 2.074-7.045 5.345-7.045 1.146 0 2.151.447 2.916 1.214V20.1l3.886.487V39.05h-3.401zm-.486-9.717c-.573-.693-1.126-1.156-1.938-1.156-1.361 0-2.436 1.368-2.436 4.315 0 3.269.98 3.955 2.22 3.955.884 0 1.557-.56 2.154-1.526v-5.587zM51.77 37.107c-.931 1.386-2.216 2.187-3.887 2.187-2.364 0-3.645-1.58-3.645-4.131V25.69h3.887v8.99c0 1.336.345 1.744 1.133 1.744s1.477-.51 2.026-1.502V25.69h3.887v13.36h-3.4v-1.942zm-15.791 2.188c-3.844 0-6.25-2.55-6.25-6.983 0-4.21 2.382-6.865 6.25-6.865s6.164 2.457 6.164 6.89c0 4.21-2.297 6.957-6.164 6.957zm-.044-11.094c-1.528 0-2.291 1.263-2.291 4.111 0 2.922.763 4.136 2.291 4.136s2.292-1.263 2.292-4.11c0-2.923-.764-4.137-2.292-4.137zM26.99 39.294c-2.197 0-3.401-1.242-3.401-3.643V20.587l3.655-.484-.012 15.304c0 .546.203.818.656.818.263 0 .453-.05.621-.124l.74 2.773c-.572.248-1.352.42-2.259.42zm-9.081-3.07c.906 0 1.614-.222 2.521-.817l1.457 2.43c-1.17.965-2.387 1.458-4.13 1.458-3.892 0-6.316-2.644-6.316-6.803 0-4.186 2.52-7.046 6.315-7.046 1.768 0 2.914.393 4.131 1.458l-1.458 2.429c-.812-.643-1.57-.972-2.428-.972-1.624 0-2.673 1.184-2.673 4.131 0 2.922 1.076 3.733 2.58 3.733z"/><path fill="#FF6860" d="M121.98 39.295c-1.24 0-2.12-.42-2.907-1.361v6.042l-3.894.42V25.69h3.4l.23 1.521c1.05-1.362 2.487-1.764 3.657-1.764 3.342 0 4.859 2.543 4.859 6.803 0 4.06-2.217 7.044-5.346 7.044zm-.782-11.094c-.812 0-1.576.57-2.125 1.536v5.546c.524.793 1.145 1.164 1.932 1.164 1.408 0 2.433-1.252 2.433-4.198 0-3.269-.928-4.048-2.242-4.048zm-11.892 9.163c-.907 1.437-2.342 1.93-3.845 1.93-2.53 0-4.105-1.683-4.105-4.085 0-2.874 1.962-4.419 5.805-4.419h1.457v-.485c0-1.56-.625-2.129-2.177-2.129-.812 0-2.054.248-3.319.693l-.86-2.576c1.6-.62 3.223-.848 4.656-.848 3.676 0 5.345 1.57 5.345 4.616v5.101c0 1.015.29 1.308.887 1.53l-.887 2.603c-1.48-.123-2.36-.642-2.957-1.93zm-.687-4.387h-.972c-1.719 0-2.673.631-2.673 1.944 0 1.041.68 1.602 1.61 1.602.86 0 1.58-.59 2.034-1.358v-2.187zm-9.232-3.886c-1.552 0-2.024 1.42-2.43 3.4v6.56h-3.886V25.69h3.4l.251 2.586c.573-1.808 1.936-2.83 3.391-2.83.478 0 .81.12 1.216.244l-.729 3.643c-.405-.099-.784-.242-1.214-.242zm-10.16 7.134c.43 0 .86-.124 1.36-.446l1.265 2.5c-.954.694-2.251 1.013-3.398 1.013-2.793-.024-4.13-1.52-4.13-4.615v-6.073h-1.943v-2.916h1.943v-2.672l3.644-.486v3.158h3.159l-.729 2.916h-2.43v6.073c0 1.265.47 1.548 1.259 1.548zM78.053 30.8c2.507.743 3.915 1.833 3.915 4.186 0 2.724-2.51 4.307-5.661 4.307-2.196 0-4.032-.767-5.273-1.93l1.839-2.13c.954.768 2.124 1.287 3.366 1.287 1.145 0 1.839-.445 1.839-1.238 0-.891-.383-1.164-2.675-1.832-2.507-.744-3.748-2.08-3.748-4.112 0-2.253 1.94-3.894 5.138-3.894 1.838 0 3.528.502 4.697 1.492l-1.385 2.203c-.978-.643-2.03-1.016-3.127-1.016-1.028 0-1.528.397-1.528.992 0 .693.335.991 2.602 1.684z"/><path fill="#fff" d="M136.558 39.537c-1.764 0-2.673-1.212-2.673-3.158 0-1.84.898-2.915 2.673-2.915 1.764 0 2.672.97 2.672 2.916 0 1.839-.898 3.159-2.672 3.159zm0-4.858c-.61 0-.972.546-.972 1.7 0 1.198.363 1.701.972 1.701s.972-.546.972-1.7c0-1.186-.363-1.7-.972-1.7zm-5.83-1.215h1.943v6.073h-1.945v-6.073zm.972-.972c-.642 0-.972-.384-.972-.972s.33-.972.973-.972c.641 0 .972.383.972.972s-.33.972-.972.972zm-3.158 7.045c-.642 0-.972-.383-.972-.972s.33-.972.972-.972.972.385.972.973-.33.972-.972.972z"/></g></g></symbol><symbol id="eDynamix"><rect width="100%" height="100%" fill="none"/><g class="currentLayer"><title>Layer 1</title><g><g fill="#fff"><path d="M53.354.148h.805c2.533.44 3.875 3.53 2.574 5.719-.908 1.948-3.785 2.45-5.23.812C49.43 4.656 50.498.768 53.354.15zM63.106 2.688c2.429-1.982 5.354 2.23 2.78 3.853-2.43 2.017-5.396-2.23-2.78-3.853zM39.473 3.692c4.067-.915 7.364 3.957 5.664 7.564-1.067 3.172-5.478 4.459-7.962 2.12-3.366-2.671-2.051-8.934 2.298-9.684zM70.077 8.806c1.156-1.329 3.241.75 1.94 1.92-1.142 1.424-3.365-.764-1.94-1.92zM25.296 14.38c4.838-2.1 10.206 2.932 9.153 7.893-.454 4.598-6.09 7.729-10.095 5.176-5.059-2.705-4.522-11.163.942-13.07zM72.74 14.277c.578-1.28 2.63.75 1.384 1.335-.771 1.073-2.505-.496-1.384-1.335zM49.005 24.235c3.84.075 8.402-.647 11.39 2.367 3.206 3.524 3.206 9.676-.028 13.186-2.987 2.987-7.536 2.264-11.362 2.34V24.235m.688.688V41.44c3.44-.042 7.522.523 10.192-2.182 2.966-3.228 2.938-8.878.02-12.133-2.656-2.732-6.764-2.16-10.212-2.202zM34.38 39.45c-2.649-3.495-.688-9.283 3.69-10.185 4.032-1.21 8.505 2.258 8.14 6.497-4.142.048-8.285-.028-12.428.062.179 3.482 3.578 6.324 7.054 5.56 2.202-.206 3.427-2.174 4.9-3.55-1.253 4.913-8.671 5.711-11.355 1.617m-.62-4.06c3.971-.042 7.935-.014 11.906-.028-.33-3.104-3.07-5.912-6.31-5.588-3.015.09-5.307 2.725-5.596 5.615zM63.43 28.839c.997.268 1.148 1.321 1.513 2.113 1.239 3.296 2.567 6.544 3.778 9.848 1.79-3.703 3.131-7.605 4.838-11.342.234-.144.695-.433.922-.578-2.147 5.43-4.535 10.756-6.73 16.166-.386.812-.606 1.837-1.597 2.12.633-1.797 1.439-3.524 2.223-5.252-1.541-4.397-3.406-8.678-4.948-13.075zM76.704 28.839c.379.901.592 1.844.647 2.828 1.906-3.695 8.32-3.448 9.69.571.915 3.2.35 6.58.475 9.862l-.647.041c-.124-3.172.433-6.448-.392-9.552-1.232-4.074-7.922-3.764-9.03.276-.57 3.041-.096 6.18-.254 9.263h-.64c.11-4.425-.214-8.871.151-13.29zM92.966 30.277c3.049-2.257 7.894-1.26 9.67 2.154-.008-1.225-.056-2.498.598-3.592.248 3.035.09 6.083.144 9.118-.048 1.46.234 3.015-.474 4.363a22.032 22.032 0 0 1-.241-3.558c-1.948 3.737-7.57 4.494-10.474 1.48-2.767-2.684-2.416-7.77.777-9.965m2.904-.454c-4.26.427-6.31 5.966-3.778 9.256 2.43 3.654 8.85 2.884 10.2-1.356 1.768-4.04-2.107-8.843-6.422-7.9zM106.82 42.128c.31-4.418-.606-9.009.467-13.31.055.702.166 2.1.227 2.801 1.576-3.551 7.412-3.324 8.548.454 1.321-3.695 7.28-4.122 8.767-.378 1.074 3.358.351 6.971.55 10.44l-.653-.021c-.144-3.235.358-6.538-.337-9.724-.888-3.613-6.73-3.517-7.68.014-.585 3.193-.159 6.49-.276 9.724h-.653c-.097-3.097.179-6.215-.18-9.298-.343-2.147-2.635-3.496-4.7-3.076-1.961.275-3.234 2.202-3.351 4.074-.179 2.76-.007 5.533-.076 8.3h-.654zM128.835 29.052l.688-.007v13.076l-.688.014V29.052zM131.525 28.77c2.244 1.246 3.015 3.923 4.55 5.836 1.403-2.051 2.532-4.343 4.459-5.98v.46c-1.335 2.058-2.74 4.068-4.06 6.132 1.3 2.079 2.697 4.088 4.06 6.125v.461c-1.962-1.59-3.07-3.902-4.411-5.973-1.583 1.906-2.347 4.618-4.59 5.904 1.224-2.264 2.759-4.342 4.15-6.51-1.384-2.154-2.919-4.212-4.158-6.455zM9.778 40.235c.055-4.487 3.62-8.74 8.182-9.056 4.749-.537 9.208 3.44 9.621 8.12.737 5.024-3.255 10.124-8.382 10.399h-1.287c-4.507-.51-8.059-4.556-8.134-9.064v-.399z"/></g><path fill="#2571ea" d="M128.312 23.815c1.844-1.321 3.73 2.003 1.686 2.932-1.817 1.21-3.64-1.962-1.686-2.932z"/></g></g></symbol><symbol id="siteground"><rect width="100%" height="100%" fill="none"/><g class="currentLayer"><title>Layer 1</title><g><g><g fill-rule="evenodd" clip-rule="evenodd"><path fill="#FFF" d="M22.685 15.019s.075.388.093.948c.052 1.593-.38 2.617-1.505 3.738-.23.23-.488.468-.778.715 3.844 2.392 5.852 7.62 3.62 11.274-3.012 4.923-8.98 3.803-12.242.433-3.415-3.53-2.962-8.095-.51-11.48 2.53-3.492 7.18-5.747 11.322-5.628z"/><path fill="#99AD68" d="M13.416 35.078c-3.308-1.082-5.667-4.295-6.246-7.662-1.595-9.294 8.295-17.68 18.174-13.024.116 2.088-.852 5.06-3.513 5.951 13.206 8.337 1.915 25.415-11.923 19.8-2.526-1.288-1.177-3.642 1.522-2.278 3.014 1.04 6.932 1.04 9.4-.323 1.592-.87 3.016-2.06 4.018-3.58.282-.427.656-1.066.953-1.763.21-.493.884-2.526.36-2.746-.13-.055-.2.1-.236.246-.334 1.35-.99 2.52-1.89 3.571-1.059 1.236-2.394 2.176-4.08 2.79-1.973.72-4.26.81-7.404.123.206-.225.624-.85.865-1.105zm9.116-19.851s.072.377.09.92c.051 1.545-.368 2.537-1.459 3.625-.223.223-.474.455-.755.694 3.729 2.319 5.676 7.39 3.511 10.933-2.921 4.775-8.71 3.689-11.873.42-3.312-3.423-2.873-7.851-.495-11.134 2.454-3.387 6.964-5.574 10.981-5.458z"/><path fill="#292929" d="M11.292 25.71c.71-7.086 8.865-8.491 11.896.955 2.446 9.708-13.02 7.596-11.896-.955zm6.65 4.662c6.438.235 3.354-6.35-.875-7.805-4.19-1.442-6.52 7.805.874 7.805z"/><path fill="#FFF" d="M47.696 24.33c.098 3.053-3.307 2.822-3.402-.113-.042-1.299 1.017-1.653 1.713-1.606.302.02.733.196 1.084.506.33.29.589.701.605 1.213zM70.189 37.179c-1.652 2-3.978 3.815-6.607 3.097-1.495-.516-2.467-1.938-2.95-3.671-.455-1.627-.48-3.527-.101-5.202.594-2.632 2.235-4.796 4.157-4.818 3.605.349 5.451 4.212 3.612 6.937-1.024 1.517-3.146 2.29-4.175 2.766-.39.181-.698.265-.645 1.002.124 1.77 3.217 1.742 5.167-2.16.18-.359 1.396-1.907 2.191-1.443 1.664.975-.445 3.246-.649 3.492zm-7.57-2.43c2.167-.671 3.942-2.485 4.103-3.478.306-1.877-2.66-3.488-3.755-.413-.278.784-.355 2.515-.347 3.892zM101.861 40.614c6.52-1.112 9.028-11.377.94-14.878-8.413-2.76-8.847 16.557-.94 14.878zm-2.959-8.276c.766-8.064 6.006-4.313 6.68.94.675 5.25-7.803 8.35-6.68-.94zM84.242 29.935c-.158 1.63 2.305 10.059.534 10.206-1.044.085-1.685.194-1.96-.369-.26-.534.767-4.873-.076-3.557-.193.302-.155.325-.468.886-2.9 5.194-6.836 3.813-9.125-.412-1.373-2.536-2.154-6.095-1.762-9.872.625-6.027 3.208-13.929 9.285-12.63 4.773 1.02 1.487 7.408-.183 5.775-3.943-8.65-11.806 12.24-3.105 17.287 2.512 1.457 4.66-3.295 4.146-5.386-.362-1.47-.447-1.52-1.176-1.301-.568.17-2.51 1.838-3.053 1.334-.68-.63-1.047-3.115.314-3.186 1.578-.083 2.47.43 4.333-1.822 1.693-2.047 3.073-1.437 2.782.78-.13.97-.414 1.522-.486 2.267zM127.984 37.85c.687-2.313 1.489-6.088.977-7.484-.768-2.093-3.696-2.86-5.142-.718-.887 1.313-.91 6.016.219 8.767.27.658-.233 1.575-1.087 1.856-3.22 1.055-.717-7.787-2.596-10.612-.406-.607-.898-.668-.954-1.122-.197-1.62 1.75-2.655 2.61-1.65.23.268.094.71.423.908 3.573-3.266 8.886-.811 9.214 3.868.11 1.572-.354 4.988-1.256 7.148-.254.606-.54 1.114-.858 1.454-.768.557-1.217.223-1.493.039-.605-.407-.283-1.686-.057-2.454zM38.924 18.653c-2.116-3.52-6.858-1.506-5.846 2.557 1.36 5.453 7.999 6.759 10.445 11.62 1.343 2.668.502 5.338-1.553 6.509-2.108 1.2-5.672 1.676-7.86.07-1.097-.803-1.006-1.411-1.585.103-.187.487-.496 1.022-1.1.51-.95-.808-.93-3.37.67-4.46 1.02-.544 1.712-.256 2.657.678 2.294 1.884 5.21 1.325 5.967-.235.485-1.003-.004-2.572-.98-3.667-1.408-1.585-3.631-2.95-5.461-5.086-2.412-2.82-4.253-5.974-3.05-9.081 1.047-2.704 4.054-5.195 7.603-3.398 2.097 1.061 4.145 3.484 2.971 5.89-.809 1.66-3.313 2.192-4.47.475-.699-1.035 2.178-1.528 1.592-2.485zM141.682 27.467c.303-2.599-.768-10.154-2.734-10.343-.529-.052-.653-1.362-.291-2.14.361-.778 1.21-1.023 2.625-.428 2.266.95 2.439 9.605 2.484 12.212.042 2.506-.077 5.613.3 7.987.144.902.39 1.62.642 2.204.414.95.825 1.609.558 2.148-.575 1.164-2.329 1.621-2.925 1.046-.413-.4-.596-1.122-.7-1.97-3.386 5.478-8.759 1.167-9.517-4.1-.732-5.082 3.82-10.982 9.558-6.616zm-5.29 10.091c4.26 3.138 5.613-4.945 3.473-7.981-2.597-3.682-9.172 3.465-3.473 7.981z"/><path fill="#FFF" d="M95.63 27.242c-.981-.764-3.053-1.67-4.952-1.472-2.649.277-5.099 2.08-4.848 4.895.108 1.202.227 6.332.681 8.442.155.72.562 1.394 1.266 1.585.661.181 1.502-.005 1.823-.767.436-1.03-.045-1.985-.291-2.86-.503-1.775-.73-4.249-.872-5.778-.293-3.142 4.418-3.574 5.532-1.744-.8 1.25.358 2.036 1.808.9 1.31-1.025.784-2.472-.147-3.201zM111.268 29.619c-1.007 2.352-.608 11.775 4.07 7.31 1.021-.974 1.15-4.102.768-6.78-.09-.617-.59-2.497-.76-3.062-.214-.723.365-1.73 1.245-2.04.713-.248 1.518.198 1.81.922.488 1.207.166 3.185.114 3.995-.155 2.416-.535 5.388.293 6.952.353.667.843.735.86 1.232.061 1.778-1.977 2.918-2.751 1.814-.206-.294-.034-.78-.35-1-3.847 3.588-8.084.774-8.02-4.364.014-1.123-.137-2.956.256-4.546.303-1.238.496-2.416 1.119-3.086.815-.612 1.237-.244 1.496-.042.573.446.144 1.851-.15 2.695zM45.043 31.027c-.05.03-.097.059-.144.085-1.447.807-1.01-.84-.232-1.811.786-.98 1.446-1.345 2.056-1.26.546.076.961.398 1.06.868.393 1.902-1.75 7.235.517 8.641.455.283.964.185 1.305-.213.426-.495.484-1.305 1.016-1.466.24-.073.437.029.526.664.157 1.915-.695 4.651-3.303 3.713-2.321-1.056-2.22-5.492-2.211-7.926 0-.166-.062-1.62-.59-1.295z"/><path fill="#D8EAC1" d="M17.941 30.372c6.44.235 3.355-6.35-.874-7.805-4.19-1.442-6.52 7.805.874 7.805z"/></g><path fill="#FFF" d="M61.215 28.028c-.216-.502-.56-.821-1.101-.8-1.273.1-1.522.05-2.711.121-1.19.071-2.21.122-3.057.153l.498-4.375c.46-4.24.48-6.849.061-7.829-.316-.741-.824-1.032-1.52-.871-1.087.2-1.345 2.078-1.464 5.605-.057 1.993.107 4.516.38 7.841-.26.064-1.05.294-1.57.448-.52.154-.935.318-1.245.49-.178.088-.266.272-.265.555 0 .282.08.609.239.98.419.98 1.067 2.468 1.946 4.466.878 1.998 1.47 3.354 1.776 4.07.532 1.244 1.222 1.85 2.07 1.82.682-.026 1.09-.122 1.222-.288.133-.166.063-.567-.209-1.203-.747-1.747-1.247-3.477-1.501-5.189-.138-.882-.207-2.598-.218-4.076 2.562-.498 4.476-.448 6-.854l.08-.029c.588-.37.263-.178.467-.401.205-.222.234-.369.122-.634zm-7.814 8.381l-.092.1-.144.007s-.066-.111-.252-.44c-.186-.328-.87-2.446-.908-2.483-.038-.036-.642-1.993-.713-2.2-.072-.206-.016-.342-.016-.342s.077-.157.24-.28c.163-.122.772-.286.772-.286l.121-.006.105.167.07.417.172 1.042.532 2.991.178 1.138-.065.175z"/></g></g></g></symbol><symbol id="zinteh"><rect width="100%" height="100%" fill="none"/><g class="currentLayer"><title>Layer 1</title><g class="selected" fill="#eda52d"><path opacity=".93" d="M12.514 26.291c.56-1.76 1.59-4.07 3.76-4.07 4.97-.18 9.99-.33 14.94.15 1.85 1.46.41 4.47.05 6.48-4.21 2.36-8.94 3.55-13.1 5.99 4.86.68 9.76-.05 14.64.08-.88 1.46-1.13 4.27-3.4 4.03-5.64.21-11.28.14-16.91-.03-2.57-9.04 8.83-8.9 13.83-12.8-4.6-.24-9.2.2-13.81.17zM35.764 22.561c1.49-.92 3.5-.21 5.19-.3-.12 5.54 0 11.09-.08 16.63-1.77.08-3.54.1-5.3.09.12-5.47-.3-10.98.19-16.42zM45.214 26.071c-.71-5.62 6.75-4.34 10.06-3.12 2.51 4.09 3.76 9.29 7.41 12.46.27-4.2-.24-8.45.26-12.64 1.33-1.15 3.36-.41 4.99-.53-.39 5.29.54 10.78-.48 15.94-2.34 1.67-6.07.7-8.9.61-3.8-3.57-4.23-9.57-8.21-12.96-.25 4.06.09 8.13-.18 12.18-.82 1.8-3.42.65-4.96 1 .02-4.31-.05-8.62.01-12.94zM69.964 25.641c.1-1.37.58-3.56 2.32-3.44 6.86-.12 13.72-.01 20.58-.04.77 5.44-5.36 3.62-8.66 3.99-.28 4.27-.09 8.55-.15 12.82-1.78.02-3.55 0-5.33-.06.03-4.25.16-8.51-.09-12.75-2.85-.34-5.96.35-8.67-.52zM95.044 22.201c5.39-.04 10.8-.31 16.18.09 1.63.48 1.95 2.28 2.33 3.68-4.47.22-8.95-.09-13.42.19.01.69.02 2.05.03 2.74 4.26 0 8.53-.05 12.8.04-1.09 5.91-8.57 2.56-12.71 3.39l-.16 2.75c4.61.15 9.23.01 13.84-.09-.45 1.4-.72 3.79-2.6 3.91-5.43.27-10.88.07-16.31.08-.08-5.59-.11-11.19.02-16.78zM117.114 22.121c4.88-1.42 6.3 2.03 5.35 6.27 3.24.29 6.51.28 9.75 0 0-2.05.01-4.1.15-6.15 1.64-.06 3.29-.08 4.94-.08.03 5.61 0 11.22.02 16.83-1.68 0-3.35-.02-5.02-.07-.13-2.08.17-4.23-.32-6.28-3.05-.2-6.13-.23-9.18.01-.67 1.98-.22 4.2-.46 6.26-1.74.07-3.49.09-5.23.11-.02-5.63-.03-11.26 0-16.9z"/></g></g></symbol></svg>