<?xml version="1.0" encoding="UTF-8" ?>
<!DOCTYPE svg PUBLIC "-//W3C//DTD SVG 1.1//EN" "http://www.w3.org/Graphics/SVG/1.1/DTD/svg11.dtd">
<svg width="150pt" height="50pt" viewBox="0 0 150 50" version="1.1" xmlns="http://www.w3.org/2000/svg">
<g id="#b81e24e6">
<path fill="#b81e24" opacity="0.90" d=" M 11.00 31.00 C 11.89 31.00 13.65 31.00 14.54 31.00 C 14.50 32.75 14.48 34.50 14.43 36.25 C 17.86 35.02 22.20 35.29 24.38 38.59 C 27.51 42.68 24.76 48.91 19.88 50.00 L 17.06 50.00 C 8.31 47.89 11.56 37.47 11.00 31.00 M 16.39 39.52 C 13.58 40.98 14.12 45.59 17.21 46.34 C 19.19 47.14 20.89 45.62 22.08 44.23 C 22.07 43.45 22.06 41.89 22.05 41.11 C 20.67 39.58 18.37 38.04 16.39 39.52 Z" />
<path fill="#b81e24" opacity="0.90" d=" M 41.96 31.00 C 42.83 31.00 44.57 31.00 45.44 31.00 C 45.43 37.33 45.43 43.67 45.44 50.00 L 41.95 50.00 C 41.93 43.67 41.91 37.33 41.96 31.00 Z" />
<path fill="#b81e24" opacity="0.90" d=" M 75.83 31.22 C 76.70 31.21 78.44 31.20 79.31 31.20 C 79.30 32.65 79.29 34.11 79.28 35.56 C 79.97 35.56 81.35 35.57 82.04 35.57 C 82.04 36.42 82.04 38.12 82.04 38.97 C 81.32 39.00 79.88 39.06 79.16 39.09 C 78.95 42.27 79.48 45.80 83.00 46.85 C 83.02 47.63 83.06 49.21 83.08 50.00 L 81.91 50.00 C 73.26 47.90 76.39 37.64 75.83 31.22 Z" />
<path fill="#b81e24" opacity="0.90" d=" M 27.05 35.81 C 27.97 35.83 29.80 35.89 30.72 35.91 C 30.76 38.74 30.45 41.60 30.94 44.40 C 31.51 47.09 35.79 47.21 36.66 44.61 C 37.25 41.73 36.88 38.75 36.94 35.84 C 37.81 35.85 39.56 35.87 40.43 35.88 C 40.46 40.92 41.65 48.42 35.17 50.00 L 32.33 50.00 C 25.91 48.28 26.97 40.89 27.05 35.81 Z" />
<path fill="#b81e24" opacity="0.90" d=" M 48.31 42.76 C 45.92 40.76 47.30 36.67 50.12 35.90 C 52.94 34.88 55.83 36.05 58.47 37.02 C 57.91 37.93 57.35 38.85 56.78 39.76 C 54.73 38.99 52.57 38.47 50.37 38.83 C 52.08 42.16 57.22 40.70 58.66 44.26 C 59.62 46.64 57.58 48.66 55.88 49.99 L 56.09 50.00 L 52.54 50.00 C 50.33 49.91 48.37 48.88 46.38 48.05 C 47.01 47.21 47.64 46.37 48.27 45.52 C 50.54 46.30 53.96 48.39 55.51 45.37 C 53.13 44.48 50.50 44.12 48.31 42.76 Z" />
<path fill="#b81e24" opacity="0.90" d=" M 59.62 41.98 C 60.01 36.91 65.98 34.43 70.26 36.60 C 71.53 35.98 72.87 35.58 74.28 35.39 C 74.30 40.26 74.29 45.13 74.29 50.00 L 69.89 50.00 L 70.91 49.59 L 71.06 48.68 C 69.78 48.12 69.00 48.57 68.70 50.00 L 65.14 50.00 C 62.12 48.45 58.91 45.81 59.62 41.98 M 63.90 45.05 C 67.03 49.08 72.90 44.07 70.05 40.08 C 66.76 36.91 60.77 41.20 63.90 45.05 Z" />
<path fill="#b81e24" opacity="0.90" d=" M 85.76 37.78 C 89.08 34.01 95.09 35.17 97.85 39.01 C 96.83 39.61 95.81 40.21 94.80 40.82 C 92.47 37.76 86.95 38.83 87.33 43.14 C 87.95 46.91 92.65 47.21 94.86 44.63 C 95.62 45.10 97.13 46.02 97.88 46.48 C 96.31 47.95 94.59 49.30 92.52 50.00 L 90.32 50.00 C 84.62 49.46 81.66 41.84 85.76 37.78 Z" />
<path fill="#b81e24" opacity="0.90" d=" M 98.29 44.77 C 96.87 40.47 100.49 35.50 105.01 35.52 C 109.47 35.08 113.53 39.48 112.68 43.89 C 112.28 46.93 109.74 49.10 106.94 50.00 L 104.13 50.00 C 101.48 49.33 99.02 47.50 98.29 44.77 M 102.92 39.92 C 100.03 42.12 102.32 47.18 105.89 46.47 C 108.67 46.35 109.39 43.33 109.15 41.05 C 107.62 39.37 104.82 37.93 102.92 39.92 Z" />
<path fill="#b81e24" opacity="0.90" d=" M 116.30 37.18 C 118.94 34.76 122.84 35.41 125.55 37.33 C 128.96 34.49 134.83 35.22 136.54 39.60 C 137.45 42.97 136.87 46.55 136.99 50.00 L 133.50 50.00 C 133.41 46.98 133.83 43.90 133.18 40.93 C 132.36 38.23 128.03 38.51 127.49 41.24 C 127.18 44.15 127.38 47.08 127.38 50.00 L 123.69 50.00 C 123.58 46.88 124.10 43.66 123.39 40.61 C 122.22 38.28 119.69 39.21 117.85 40.01 C 117.54 43.33 117.53 46.67 117.55 50.00 L 114.03 50.00 C 114.35 45.76 112.68 40.41 116.30 37.18 Z" />
</g>
</svg>
