<svg xmlns="http://www.w3.org/2000/svg" width="150" height="60" version="1.1"><rect id="backgroundrect" width="100%" height="100%" x="0" y="0" fill="none" stroke="none"/>

<g class="currentLayer"><title>Layer 1</title><g id="#b81e24e6" class="">
<path fill="#b81e24" opacity="0.90" d="M11.75471693277359,20.8113214969635 C12.64471693277359,20.8113214969635 14.40471693277359,20.8113214969635 15.29471693277359,20.8113214969635 C15.25471693277359,22.5613214969635 15.23471693277359,24.3113214969635 15.18471693277359,26.0613214969635 C18.61471693277359,24.831321496963504 22.95471693277359,25.1013214969635 25.13471693277359,28.401321496963504 C28.26471693277359,32.4913214969635 25.51471693277359,38.7213214969635 20.63471693277359,39.8113214969635 L17.81471693277359,39.8113214969635 C9.06471693277359,37.7013214969635 12.31471693277359,27.2813214969635 11.75471693277359,20.8113214969635 M17.14471693277359,29.331321496963504 C14.33471693277359,30.791321496963498 14.87471693277359,35.401321496963504 17.96471693277359,36.151321496963504 C19.94471693277359,36.9513214969635 21.64471693277359,35.4313214969635 22.83471693277359,34.0413214969635 C22.82471693277359,33.261321496963504 22.81471693277359,31.7013214969635 22.80471693277359,30.9213214969635 C21.424716932773592,29.3913214969635 19.12471693277359,27.8513214969635 17.14471693277359,29.331321496963504 z" id="svg_1"/>
<path fill="#b81e24" opacity="0.90" d="M42.71471693277359,20.8113214969635 C43.58471693277359,20.8113214969635 45.32471693277359,20.8113214969635 46.19471693277359,20.8113214969635 C46.18471693277359,27.1413214969635 46.18471693277359,33.4813214969635 46.19471693277359,39.8113214969635 L42.70471693277359,39.8113214969635 C42.68471693277359,33.4813214969635 42.66471693277359,27.1413214969635 42.71471693277359,20.8113214969635 z" id="svg_2"/>
<path fill="#b81e24" opacity="0.90" d="M76.58471693277359,21.0313214969635 C77.4547169327736,21.021321496963502 79.19471693277359,21.0113214969635 80.06471693277359,21.0113214969635 C80.05471693277359,22.4613214969635 80.0447169327736,23.9213214969635 80.03471693277359,25.371321496963503 C80.72471693277359,25.371321496963503 82.10471693277358,25.3813214969635 82.7947169327736,25.3813214969635 C82.7947169327736,26.231321496963503 82.7947169327736,27.9313214969635 82.7947169327736,28.7813214969635 C82.07471693277358,28.8113214969635 80.63471693277359,28.871321496963503 79.91471693277359,28.901321496963504 C79.7047169327736,32.081321496963504 80.2347169327736,35.6113214969635 83.75471693277359,36.6613214969635 C83.77471693277359,37.4413214969635 83.81471693277359,39.0213214969635 83.83471693277359,39.8113214969635 L82.66471693277359,39.8113214969635 C74.0147169327736,37.7113214969635 77.14471693277359,27.4513214969635 76.58471693277359,21.0313214969635 z" id="svg_3"/>
<path fill="#b81e24" opacity="0.90" d="M27.80471693277359,25.621321496963503 C28.72471693277359,25.6413214969635 30.55471693277359,25.7013214969635 31.47471693277359,25.721321496963498 C31.51471693277359,28.551321496963503 31.20471693277359,31.411321496963502 31.69471693277359,34.2113214969635 C32.264716932773595,36.901321496963504 36.54471693277359,37.0213214969635 37.41471693277359,34.4213214969635 C38.00471693277359,31.541321496963498 37.63471693277359,28.5613214969635 37.69471693277359,25.651321496963504 C38.56471693277359,25.661321496963502 40.31471693277359,25.6813214969635 41.18471693277359,25.691321496963504 C41.21471693277359,30.731321496963503 42.40471693277359,38.2313214969635 35.92471693277359,39.8113214969635 L33.08471693277359,39.8113214969635 C26.66471693277359,38.0913214969635 27.72471693277359,30.7013214969635 27.80471693277359,25.621321496963503 z" id="svg_4"/>
<path fill="#b81e24" opacity="0.90" d="M49.06471693277359,32.5713214969635 C46.67471693277359,30.5713214969635 48.05471693277359,26.481321496963503 50.87471693277359,25.7113214969635 C53.69471693277359,24.691321496963504 56.58471693277359,25.861321496963498 59.22471693277359,26.831321496963504 C58.66471693277359,27.7413214969635 58.1047169327736,28.661321496963502 57.53471693277359,29.5713214969635 C55.48471693277359,28.801321496963503 53.32471693277359,28.2813214969635 51.12471693277359,28.6413214969635 C52.83471693277359,31.971321496963498 57.97471693277359,30.511321496963504 59.41471693277359,34.0713214969635 C60.37471693277359,36.4513214969635 58.33471693277359,38.4713214969635 56.63471693277359,39.8013214969635 L56.84471693277359,39.8113214969635 L53.29471693277359,39.8113214969635 C51.08471693277359,39.7213214969635 49.12471693277359,38.6913214969635 47.13471693277359,37.8613214969635 C47.76471693277359,37.0213214969635 48.39471693277359,36.1813214969635 49.02471693277359,35.331321496963504 C51.29471693277359,36.1113214969635 54.71471693277359,38.2013214969635 56.26471693277359,35.1813214969635 C53.88471693277359,34.2913214969635 51.25471693277359,33.9313214969635 49.06471693277359,32.5713214969635 z" id="svg_5"/>
<path fill="#b81e24" opacity="0.90" d="M60.37471693277359,31.791321496963498 C60.76471693277359,26.721321496963498 66.7347169327736,24.2413214969635 71.0147169327736,26.411321496963502 C72.28471693277359,25.791321496963498 73.6247169327736,25.3913214969635 75.03471693277359,25.2013214969635 C75.05471693277359,30.0713214969635 75.0447169327736,34.9413214969635 75.0447169327736,39.8113214969635 L70.64471693277359,39.8113214969635 L71.66471693277359,39.401321496963504 L71.81471693277359,38.4913214969635 C70.53471693277359,37.9313214969635 69.75471693277359,38.3813214969635 69.4547169327736,39.8113214969635 L65.89471693277359,39.8113214969635 C62.87471693277359,38.261321496963504 59.66471693277359,35.6213214969635 60.37471693277359,31.791321496963498 M64.6547169327736,34.8613214969635 C67.78471693277359,38.8913214969635 73.6547169327736,33.8813214969635 70.80471693277359,29.8913214969635 C67.5147169327736,26.721321496963498 61.52471693277359,31.011321496963504 64.6547169327736,34.8613214969635 z" id="svg_6"/>
<path fill="#b81e24" opacity="0.90" d="M86.5147169327736,27.591321496963502 C89.83471693277359,23.8213214969635 95.8447169327736,24.981321496963503 98.60471693277358,28.8213214969635 C97.58471693277359,29.4213214969635 96.56471693277359,30.021321496963502 95.55471693277359,30.6313214969635 C93.22471693277359,27.5713214969635 87.7047169327736,28.6413214969635 88.08471693277359,32.9513214969635 C88.7047169327736,36.7213214969635 93.4047169327736,37.0213214969635 95.61471693277359,34.4413214969635 C96.3747169327736,34.9113214969635 97.88471693277359,35.831321496963504 98.63471693277359,36.2913214969635 C97.06471693277359,37.761321496963504 95.3447169327736,39.1113214969635 93.27471693277359,39.8113214969635 L91.07471693277358,39.8113214969635 C85.3747169327736,39.2713214969635 82.41471693277359,31.651321496963504 86.5147169327736,27.591321496963502 z" id="svg_7"/>
<path fill="#b81e24" opacity="0.90" d="M99.0447169327736,34.581321496963504 C97.6247169327736,30.2813214969635 101.24471693277358,25.3113214969635 105.7647169327736,25.331321496963504 C110.22471693277359,24.8913214969635 114.28471693277359,29.291321496963498 113.4347169327736,33.7013214969635 C113.03471693277359,36.7413214969635 110.49471693277358,38.9113214969635 107.69471693277359,39.8113214969635 L104.88471693277359,39.8113214969635 C102.2347169327736,39.1413214969635 99.77471693277359,37.3113214969635 99.0447169327736,34.581321496963504 M103.67471693277359,29.731321496963503 C100.78471693277359,31.9313214969635 103.07471693277358,36.9913214969635 106.64471693277359,36.2813214969635 C109.42471693277359,36.1613214969635 110.14471693277359,33.1413214969635 109.9047169327736,30.861321496963498 C108.3747169327736,29.1813214969635 105.57471693277358,27.7413214969635 103.67471693277359,29.731321496963503 z" id="svg_8"/>
<path fill="#b81e24" opacity="0.90" d="M117.05471693277359,26.9913214969635 C119.69471693277359,24.5713214969635 123.5947169327736,25.221321496963498 126.30471693277359,27.1413214969635 C129.7147169327736,24.301321496963503 135.5847169327736,25.0313214969635 137.29471693277358,29.411321496963502 C138.20471693277358,32.7813214969635 137.6247169327736,36.3613214969635 137.7447169327736,39.8113214969635 L134.2547169327736,39.8113214969635 C134.1647169327736,36.7913214969635 134.5847169327736,33.7113214969635 133.9347169327736,30.7413214969635 C133.1147169327736,28.041321496963498 128.7847169327736,28.3213214969635 128.2447169327736,31.051321496963503 C127.9347169327736,33.9613214969635 128.13471693277359,36.8913214969635 128.13471693277359,39.8113214969635 L124.44471693277359,39.8113214969635 C124.33471693277359,36.6913214969635 124.85471693277358,33.4713214969635 124.14471693277359,30.4213214969635 C122.97471693277359,28.091321496963502 120.44471693277359,29.021321496963502 118.60471693277358,29.8213214969635 C118.2947169327736,33.1413214969635 118.28471693277359,36.4813214969635 118.30471693277359,39.8113214969635 L114.78471693277359,39.8113214969635 C115.10471693277358,35.571321496963506 113.4347169327736,30.221321496963498 117.05471693277359,26.9913214969635 z" id="svg_9"/>
</g></g></svg>