<?xml version="1.0" encoding="UTF-8" ?>
<!DOCTYPE svg PUBLIC "-//W3C//DTD SVG 1.1//EN" "http://www.w3.org/Graphics/SVG/1.1/DTD/svg11.dtd">
<svg width="190pt" height="72pt" viewBox="0 0 190 72" version="1.1" xmlns="http://www.w3.org/2000/svg">
<g id="#ffffffff">
<path fill="#ffffff" opacity="1.00" d=" M 63.32 0.00 L 64.49 0.00 C 68.17 0.64 70.12 5.13 68.23 8.31 C 66.91 11.14 62.73 11.87 60.63 9.49 C 57.62 6.55 59.17 0.90 63.32 0.00 Z" />
<path fill="#ffffff" opacity="1.00" d=" M 77.49 3.69 C 81.02 0.81 85.27 6.93 81.53 9.29 C 78.00 12.22 73.69 6.05 77.49 3.69 Z" />
<path fill="#ffffff" opacity="1.00" d=" M 43.15 5.15 C 49.06 3.82 53.85 10.90 51.38 16.14 C 49.83 20.75 43.42 22.62 39.81 19.22 C 34.92 15.34 36.83 6.24 43.15 5.15 Z" />
<path fill="#ffffff" opacity="1.00" d=" M 87.62 12.58 C 89.30 10.65 92.33 13.67 90.44 15.37 C 88.78 17.44 85.55 14.26 87.62 12.58 Z" />
<path fill="#ffffff" opacity="1.00" d=" M 22.55 20.68 C 29.58 17.63 37.38 24.94 35.85 32.15 C 35.19 38.83 27.00 43.38 21.18 39.67 C 13.83 35.74 14.61 23.45 22.55 20.68 Z" />
<path fill="#ffffff" opacity="1.00" d=" M 91.49 20.53 C 92.33 18.67 95.31 21.62 93.50 22.47 C 92.38 24.03 89.86 21.75 91.49 20.53 Z" />
<path fill="#ffffff" opacity="1.00" d=" M 57.00 35.00 C 62.58 35.11 69.21 34.06 73.55 38.44 C 78.21 43.56 78.21 52.50 73.51 57.60 C 69.17 61.94 62.56 60.89 57.00 61.00 C 57.00 52.33 57.00 43.67 57.00 35.00 M 58.00 36.00 C 58.00 44.00 58.00 52.00 58.00 60.00 C 63.00 59.94 68.93 60.76 72.81 56.83 C 77.12 52.14 77.08 43.93 72.84 39.20 C 68.98 35.23 63.01 36.06 58.00 36.00 Z" />
<path fill="#ffffff" opacity="1.00" d=" M 35.75 57.11 C 31.90 52.03 34.75 43.62 41.11 42.31 C 46.97 40.55 53.47 45.59 52.94 51.75 C 46.92 51.82 40.90 51.71 34.88 51.84 C 35.14 56.90 40.08 61.03 45.13 59.92 C 48.33 59.62 50.11 56.76 52.25 54.76 C 50.43 61.90 39.65 63.06 35.75 57.11 M 34.85 51.21 C 40.62 51.15 46.38 51.19 52.15 51.17 C 51.67 46.66 47.69 42.58 42.98 43.05 C 38.60 43.18 35.27 47.01 34.85 51.21 Z" />
<path fill="#ffffff" opacity="1.00" d=" M 77.96 41.69 C 79.41 42.08 79.63 43.61 80.16 44.76 C 81.96 49.55 83.89 54.27 85.65 59.07 C 88.25 53.69 90.20 48.02 92.68 42.59 C 93.02 42.38 93.69 41.96 94.02 41.75 C 90.90 49.64 87.43 57.38 84.24 65.24 C 83.68 66.42 83.36 67.91 81.92 68.32 C 82.84 65.71 84.01 63.20 85.15 60.69 C 82.91 54.30 80.20 48.08 77.96 41.69 Z" />
<path fill="#ffffff" opacity="1.00" d=" M 97.25 41.69 C 97.80 43.00 98.11 44.37 98.19 45.80 C 100.96 40.43 110.28 40.79 112.27 46.63 C 113.60 51.28 112.78 56.19 112.96 60.96 L 112.02 61.02 C 111.84 56.41 112.65 51.65 111.45 47.14 C 109.66 41.22 99.94 41.67 98.33 47.54 C 97.50 51.96 98.19 56.52 97.96 61.00 L 97.03 61.00 C 97.19 54.57 96.72 48.11 97.25 41.69 Z" />
<path fill="#ffffff" opacity="1.00" d=" M 120.88 43.78 C 125.31 40.50 132.35 41.95 134.93 46.91 C 134.92 45.13 134.85 43.28 135.80 41.69 C 136.16 46.10 135.93 50.53 136.01 54.94 C 135.94 57.06 136.35 59.32 135.32 61.28 C 135.06 59.56 134.95 57.84 134.97 56.11 C 132.14 61.54 123.97 62.64 119.75 58.26 C 115.73 54.36 116.24 46.97 120.88 43.78 M 125.10 43.12 C 118.91 43.74 115.93 51.79 119.61 56.57 C 123.14 61.88 132.47 60.76 134.43 54.60 C 137.00 48.73 131.37 41.75 125.10 43.12 Z" />
<path fill="#ffffff" opacity="1.00" d=" M 141.01 61.00 C 141.46 54.58 140.13 47.91 141.69 41.66 C 141.77 42.68 141.93 44.71 142.02 45.73 C 144.31 40.57 152.79 40.90 154.44 46.39 C 156.36 41.02 165.02 40.40 167.18 45.84 C 168.74 50.72 167.69 55.97 167.98 61.01 L 167.03 60.98 C 166.82 56.28 167.55 51.48 166.54 46.85 C 165.25 41.60 156.76 41.74 155.38 46.87 C 154.53 51.51 155.15 56.30 154.98 61.00 L 154.03 61.00 C 153.89 56.50 154.29 51.97 153.77 47.49 C 153.27 44.37 149.94 42.41 146.94 43.02 C 144.09 43.42 142.24 46.22 142.07 48.94 C 141.81 52.95 142.06 56.98 141.96 61.00 L 141.01 61.00 Z" />
<path fill="#ffffff" opacity="1.00" d=" M 173.00 42.00 L 174.00 41.99 C 174.00 48.33 174.00 54.66 174.00 60.99 L 173.00 61.01 C 173.00 54.67 173.00 48.34 173.00 42.00 Z" />
<path fill="#ffffff" opacity="1.00" d=" M 176.91 41.59 C 180.17 43.40 181.29 47.29 183.52 50.07 C 185.56 47.09 187.20 43.76 190.00 41.38 L 190.00 42.05 C 188.06 45.04 186.02 47.96 184.10 50.96 C 185.99 53.98 188.02 56.90 190.00 59.86 L 190.00 60.53 C 187.15 58.22 185.54 54.86 183.59 51.85 C 181.29 54.62 180.18 58.56 176.92 60.43 C 178.70 57.14 180.93 54.12 182.95 50.97 C 180.94 47.84 178.71 44.85 176.91 41.59 Z" />
<path fill="#ffffff" opacity="1.00" d=" M 0.00 58.25 C 0.08 51.73 5.26 45.55 11.89 45.09 C 18.79 44.31 25.27 50.09 25.87 56.89 C 26.94 64.19 21.14 71.60 13.69 72.00 L 11.82 72.00 C 5.27 71.26 0.11 65.38 0.00 58.83 L 0.00 58.25 Z" />
</g>
<g id="#2571eafe">
<path fill="#2571ea" opacity="1.00" d=" M 172.24 34.39 C 174.92 32.47 177.66 37.30 174.69 38.65 C 172.05 40.41 169.40 35.80 172.24 34.39 Z" />
</g>
</svg>
