<svg width="200" height="60.00000000000001" xmlns="http://www.w3.org/2000/svg">

 <g>
  <title>background</title>
  <rect fill="none" id="canvas_background" height="402" width="582" y="-1" x="-1"/>
 </g>
 <g>
  <title>Layer 1</title>
  <path id="svg_1" d="m77.052912,52.375534l-0.317,-2.35c-0.997,1.518 -2.7,2.688 -5.093,2.688c-4.486,0 -6.763,-3.54 -6.763,-9.47c0,-5.652 2.887,-9.806 7.44,-9.806c1.595,0 2.994,0.622 4.058,1.69l0,-9.13l5.41,0.677l0,25.7l-4.735,0l0,0.001zm-0.676,-13.527c-0.797,-0.965 -1.568,-1.61 -2.698,-1.61c-1.894,0 -3.39,1.904 -3.39,6.006c0,4.55 1.363,5.506 3.09,5.506c1.23,0 2.167,-0.78 2.998,-2.125l0,-7.776l0,-0.001zm-19.276,10.82c-1.296,1.93 -3.084,3.044 -5.41,3.044c-3.29,0 -5.073,-2.198 -5.073,-5.75l0,-13.184l5.41,0l0,12.512c0,1.86 0.48,2.428 1.577,2.428s2.056,-0.71 2.82,-2.09l0,-12.85l5.41,0l0,18.597l-4.732,0l0,-2.705l-0.002,-0.002zm-21.982,3.045c-5.35,0 -8.7,-3.55 -8.7,-9.72c0,-5.86 3.316,-9.556 8.7,-9.556s8.58,3.42 8.58,9.59c0,5.86 -3.197,9.685 -8.58,9.685l0,0.001zm21.922,-18.487c-2.128,0 -3.19,1.758 -3.19,5.722c0,4.067 1.062,5.757 3.19,5.757c2.126,0 3.19,-1.758 3.19,-5.722c0,-4.068 -1.064,-5.757 -3.19,-5.757zm-12.452,15.44c-3.057,0 -4.734,-1.728 -4.734,-5.07l0,-17.921l5.088,-0.674l-0.016,21.302c0,0.76 0.282,1.138 0.913,1.138c0.366,0 0.63,-0.07 0.864,-0.172l1.03,3.86c-0.796,0.345 -1.882,0.585 -3.144,0.585l-0.001,-3.048zm-12.64,-4.272c1.262,0 2.247,-0.31 3.51,-1.138l2.028,3.382c-1.628,1.344 -3.323,2.03 -5.75,2.03c-5.416,0 -8.79,-3.68 -8.79,-9.47c0,-5.826 3.507,-9.807 8.79,-9.807c2.46,0 4.055,0.547 5.75,2.03l-2.03,3.38c-1.13,-0.895 -2.184,-1.352 -3.38,-1.352c-2.26,0 -3.72,1.648 -3.72,5.75c0,4.067 1.497,5.196 3.59,5.196l0.002,-0.001z" fill="#39393b"/>
  <path id="svg_2" d="m154.829912,52.715534c-1.728,0 -2.952,-0.585 -4.048,-1.895l0,8.41l-5.42,0.585l0,-26.038l4.733,0l0.32,2.118c1.462,-1.896 3.462,-2.456 5.09,-2.456c4.652,0 6.763,3.54 6.763,9.47c0,5.65 -3.086,9.805 -7.44,9.805l0.002,0.001zm-1.092,-15.443c-1.13,0 -2.194,0.793 -2.958,2.137l0,7.72c0.73,1.104 1.594,1.62 2.69,1.62c1.96,0 3.386,-1.742 3.386,-5.843c0,-4.55 -1.292,-5.634 -3.12,-5.634l0.002,0zm-16.552,12.754c-1.263,2 -3.26,2.687 -5.353,2.687c-3.522,0 -5.713,-2.343 -5.713,-5.687c0,-4 2.73,-6.15 8.08,-6.15l2.028,0l0,-0.676c0,-2.172 -0.87,-2.963 -3.03,-2.963c-1.13,0 -2.86,0.345 -4.62,0.965l-1.196,-3.586c2.227,-0.862 4.485,-1.18 6.48,-1.18c5.116,0 7.44,2.185 7.44,6.425l0,7.1c0,1.413 0.403,1.82 1.234,2.13l-1.233,3.624c-2.06,-0.172 -3.284,-0.894 -4.115,-2.686l-0.002,-0.003zm-0.957,-6.106l-1.353,0c-2.392,0 -3.72,0.878 -3.72,2.705c0,1.45 0.945,2.23 2.24,2.23c1.197,0 2.2,-0.822 2.832,-1.89l0,-3.044l0.001,-0.001zm-12.85,-5.41c-2.16,0 -2.817,1.977 -3.382,4.734l0,9.13l-5.41,0l0,-18.597l4.733,0l0.35,3.6c0.797,-2.516 2.694,-3.938 4.72,-3.938c0.665,0 1.127,0.166 1.692,0.338l-1.014,5.072c-0.564,-0.138 -1.092,-0.338 -1.69,-0.338l0.001,-0.001zm-14.142,9.93c0.598,0 1.196,-0.172 1.894,-0.62l1.76,3.48c-1.328,0.965 -3.134,1.41 -4.73,1.41c-3.887,-0.034 -5.748,-2.115 -5.748,-6.424l0,-8.454l-2.705,0l0,-4.057l2.705,0l0,-3.72l5.072,-0.676l0,4.396l4.396,0l-1.014,4.058l-3.382,0l0,8.454c0,1.76 0.655,2.154 1.752,2.154l0,-0.001zm-15.554,-7.55c3.49,1.035 5.45,2.552 5.45,5.827c0,3.792 -3.493,5.996 -7.88,5.996c-3.057,0 -5.612,-1.068 -7.34,-2.688l2.56,-2.965c1.328,1.07 2.957,1.793 4.685,1.793c1.595,0 2.56,-0.62 2.56,-1.724c0,-1.24 -0.533,-1.62 -3.723,-2.55c-3.49,-1.035 -5.217,-2.896 -5.217,-5.723c0,-3.137 2.7,-5.42 7.152,-5.42c2.558,0 4.91,0.698 6.537,2.076l-1.927,3.067c-1.362,-0.896 -2.825,-1.414 -4.353,-1.414c-1.43,0 -2.127,0.552 -2.127,1.38c0,0.965 0.466,1.38 3.622,2.344l0.001,0.001z" fill="#FF6860"/>
  <path id="svg_3" d="m175.119912,53.052534c-2.455,0 -3.72,-1.688 -3.72,-4.396c0,-2.56 1.25,-4.057 3.72,-4.057c2.455,0 3.72,1.35 3.72,4.058c0,2.56 -1.25,4.397 -3.72,4.397l0,-0.002zm0,-6.761c-0.848,0 -1.353,0.76 -1.353,2.367c0,1.668 0.505,2.368 1.353,2.368s1.353,-0.76 1.353,-2.367c0,-1.65 -0.505,-2.366 -1.353,-2.366l0,-0.002zm-8.116,-1.69l2.706,0l0,8.453l-2.707,0l0,-8.454l0.001,0.001zm1.354,-1.354c-0.893,0 -1.353,-0.534 -1.353,-1.353s0.46,-1.353 1.354,-1.353c0.893,0 1.353,0.534 1.353,1.353s-0.46,1.353 -1.353,1.353l-0.001,0zm-4.396,9.807c-0.893,0 -1.353,-0.534 -1.353,-1.353s0.46,-1.353 1.353,-1.353s1.353,0.535 1.353,1.354s-0.46,1.353 -1.352,1.353l-0.001,-0.001z" fill="#39393b"/>
 </g>
</svg>