<svg xmlns="http://www.w3.org/2000/svg" xmlns:xlink="http://www.w3.org/1999/xlink" version="1.1" width="150" height="60" enable-background="new 0 0 284.982 58.062" xml:space="preserve"><rect id="backgroundrect" width="100%" height="100%" x="0" y="0" fill="none" stroke="none" class=""/><g class="currentLayer"><title>Layer 1</title><g class=""><g id="Layer_1" class=""><g id="svg_1"><path fill-rule="evenodd" clip-rule="evenodd" fill="#FFFFFF" d="M22.685218342125836,15.018688224462561 c0,0 0.07476321023702624,0.3883803129196169 0.09272579970955853,0.948618914306164 c0.05194586685299874,1.5928447583615784 -0.3801272312700749,2.616226882904768 -1.504973712563515,3.738160511851311 c-0.2296298600137234,0.22914438462257392 -0.4883882434964181,0.46799827706813824 -0.7782170520126821,0.7146197757720947 c3.844479622513056,2.39145177680254 5.852405840307474,7.61953626409173 3.620675467193127,11.273709533274175 c-3.012374802082777,4.92369141703844 -8.981294736266136,3.8032142142653464 -12.242718414008618,0.43352952429652225 c-3.4143484259545804,-3.529891569048166 -2.961399886012077,-8.095302147418261 -0.5097491607069968,-11.48003657451272 C13.893259008408016,17.154779945520453 18.543142304838128,14.899746753630929 22.685218342125836,15.018688224462561 L22.685218342125836,15.018688224462561 z" id="svg_2"/><path fill-rule="evenodd" clip-rule="evenodd" fill="#99AD68" d="M13.41555122351689,35.078045911369614 C10.108492859006352,33.996406739888485 7.748596982628531,30.783045125869805 7.170395791769452,27.415787812856728 C5.574638181060976,18.1218469246903 15.464742849559016,9.735745017973475 25.343681584060615,14.39242496987968 c0.11651409387588503,2.0880296573340895 -0.8515238360762596,5.058653575778007 -3.512899930357933,5.950957344710827 c13.206387065440415,8.336583416819574 1.91520041808486,25.41463672667742 -11.923275606632233,19.79914287725091 c-2.5259284601509573,-1.2874807373285295 -1.176306872755289,-3.6410654336214066 1.5224508266448977,-2.2773650598824022 c3.014316703647375,1.039402812451124 6.931617634832859,1.039402812451124 9.399774523437022,-0.3233266105055811 c1.591873807579279,-0.8704573763310911 3.016258605211973,-2.0603575600385664 4.018279812544584,-3.5803810097277164 c0.28157572686672216,-0.42673286882042893 0.6563627288341523,-1.0656184835731983 0.9529881928265096,-1.7627611452639105 c0.20972536897659308,-0.49227204662561425 0.883565211892128,-2.5259284601509573 0.36022274023294465,-2.745848812341691 c-0.13107835561037068,-0.05485871919989589 -0.20001586115360265,0.10049340596795084 -0.23594104009866723,0.2466214987039566 c-0.3340070691108706,1.3501070627868177 -0.9898843225538734,2.518646329283714 -1.8909266485273841,3.570671501904726 c-1.0583363527059555,1.2355348704755307 -2.3933936783671377,2.1759007031321524 -4.078964236438274,2.7905125483274458 c-1.9729719896316529,0.71947452968359 -4.260046557337046,0.809772952437401 -7.404470665812493,0.12233979856967926 C12.757246593118138,35.95821279552369 13.174755429506725,35.332435016331964 13.41555122351689,35.078045911369614 L13.41555122351689,35.078045911369614 zM22.532293593913742,15.226957167265706 c0,0 0.07185035789012909,0.3772143789231778 0.09029842275381093,0.9204613416194917 c0.05048944067955019,1.5447826946377754 -0.36896129727363597,2.5366089187562464 -1.4593390257954597,3.6250447457134722 c-0.22283320453763017,0.22283320453763017 -0.47430945715308187,0.45440496611595166 -0.7549142332375053,0.693258858561516 c3.72845100402832,2.319115943521261 5.675692797929049,7.390391879469156 3.510958028793335,10.93339128407836 c-2.9215909039378167,4.775135947346688 -8.710884943395854,3.6886420219540597 -11.87375711673498,0.4199362133443357 c-3.3114276430308816,-3.4230869829952724 -2.8720724140405656,-7.851108025670052 -0.4942139481902123,-11.133892620623111 C14.005403823763558,17.29848066130071 18.514984732151454,15.11092854878097 22.532293593913742,15.226957167265706 L22.532293593913742,15.226957167265706 z" id="svg_3"/><path fill-rule="evenodd" clip-rule="evenodd" fill="#292929" d="M11.292081862628883,25.70982728835731 c0.710250497251749,-7.085998809218407 8.864780642390253,-8.490964591205119 11.89608898472786,0.9549300943911078 C25.633995867968032,36.373294254956534 10.168691807508893,34.260990828064976 11.292081862628883,25.70982728835731 L11.292081862628883,25.70982728835731 zM17.94115281981272,30.37233294495731 c6.439345588207244,0.23497008931636817 3.354634952843189,-6.350018116235733 -0.8743411794602873,-7.8054733389019955 C12.876188063949769,21.124512218950088 10.54687713721437,30.37233294495731 17.94115281981272,30.37233294495731 L17.94115281981272,30.37233294495731 z" id="svg_4"/><path fill-rule="evenodd" clip-rule="evenodd" fill="#FFFFFF" d="M47.696425018758006,24.329620751319222 c0.09709507822990422,3.0531547349393366 -3.3075438399016854,2.8220684487521646 -3.4022115411758422,-0.11311576613783839 c-0.04223635903000834,-1.298161195933819 1.0165854690670966,-1.652558231472969 1.7127571799755097,-1.605952593922615 c0.30245116868615163,0.02038996642827989 0.7330678406357767,0.19661753341555596 1.0835810730457307,0.5068363083600999 C47.42116047197622,23.40770298352628 47.67991885545892,23.818415164438775 47.696425018758006,24.329620751319222 L47.696425018758006,24.329620751319222 z" id="svg_5"/><path fill-rule="evenodd" clip-rule="evenodd" fill="#FFFFFF" d="M70.18898536610645,37.17869792887359 c-1.6520727560818198,1.9996731361448765 -3.9784708304703242,3.8148656236529352 -6.60683459815383,3.096847520142794 c-1.4947787293493748,-0.5155748654007912 -2.4671859378218652,-1.9380177614688874 -2.9502339520156378,-3.6706794324815277 c-0.45537591689825074,-1.627313511133194 -0.4791642110645772,-3.5264932413101198 -0.10097888135910035,-5.201383340775966 c0.5942218787670136,-2.6327330462038523 2.2351287008523943,-4.796011389166116 4.1566402990221984,-4.818343257158995 c3.605625730067491,0.3485713308453561 5.451403167217969,4.211984493613243 3.6119369101524357,6.936957864135503 c-1.02338212454319,1.5166251219511033 -3.145395059257746,2.2895019446611404 -4.1741174131035805,2.7662387787699703 c-0.3898367390930654,0.18108232089877133 -0.6981136124730114,0.2650695635676385 -0.6456822702288629,1.0020212073326111 c0.12428170013427738,1.770043276131153 3.2177308925390244,1.7414002280533314 5.166914588004351,-2.159880015224218 c0.17962589472532278,-0.35925178945064556 1.3967127003371718,-1.9079182872176168 2.1914359156489374,-1.4433183378875256 C72.50227560493391,34.66247897654563 70.39288503038927,36.93304738095193 70.18898536610645,37.17869792887359 L70.18898536610645,37.17869792887359 zM62.61993854269428,34.74986454695254 c2.166191195309162,-0.6718979413509371 3.941089225351811,-2.4861194780766964 4.102267055213451,-3.4789166529774667 c0.3058494964241983,-1.8768478621840479 -2.659919668108225,-3.488140685409307 -3.7556376259326933,-0.4126540824770928 C62.6888760482375,31.642336568204456 62.61217093643589,33.3730563376525 62.61993854269428,34.74986454695254 L62.61993854269428,34.74986454695254 z" id="svg_6"/><path fill-rule="evenodd" clip-rule="evenodd" fill="#FFFFFF" d="M101.8613998847012,40.61440727203875 c6.5199345031380656,-1.1127095965147018 9.02790037381649,-11.377115791589022 0.9398803572654726,-14.878364312559366 C94.38847718873663,22.976600836185508 93.9539767136578,42.29269569924264 101.8613998847012,40.61440727203875 L101.8613998847012,40.61440727203875 zM98.90242737564486,32.33753732833057 c0.7651092164516452,-8.063260771602392 6.0053305885195725,-4.312477899581195 6.679170431435109,0.9408513080477716 C106.25737955156012,38.52783404087811 97.77855184513373,41.62807988875895 98.90242737564486,32.33753732833057 L98.90242737564486,32.33753732833057 z" id="svg_7"/><path fill-rule="evenodd" clip-rule="evenodd" fill="#FFFFFF" d="M84.24204151371163,29.93540509292274 c-0.15826497751474386,1.629740888088942 2.3045516817867755,10.058564629226924 0.5340229302644731,10.205178197354078 c-1.0437720909714698,0.08544366884231569 -1.6850850826799872,0.1941901564598084 -1.959378678679466,-0.3684758218824865 c-0.26070028504729276,-0.5345084056556225 0.7665656426250937,-4.872716500967742 -0.07621963641047479,-3.5570781909525393 c-0.1932192056775094,0.30196569329500217 -0.15535212516784674,0.3252685120701791 -0.46799827706813824,0.8855071134567262 c-2.900715462118387,5.194586685299873 -6.836464458167553,3.8134091974794866 -9.124995452046393,-0.4116831316947938 c-1.373895356953144,-2.536123443365097 -2.1540543105304244,-6.095143535882235 -1.7622756698727606,-9.872142079025508 c0.6248068284094336,-6.027176981121301 3.208021384716034,-13.928288972079754 9.284716855734587,-12.630613251537085 c4.773194045782089,1.0209547475874425 1.4870111230909826,7.408839944332838 -0.18253874707221993,5.776186203896999 c-3.943516602307558,-8.650200519502164 -11.806761512756347,12.23932008627057 -3.105586077183485,17.28632225266099 c2.5123351491987704,1.456911648839712 4.66104923042655,-3.2944360043406484 4.145959840416908,-5.385378514021635 c-0.3616791664063931,-1.4695340090095999 -0.44663735985755926,-1.52002344968915 -1.1758213973641396,-1.3015595236718656 c-0.5675207322537902,0.17088733768463138 -2.509907772243023,1.8380098308920862 -3.0531547349393366,1.3340863748788836 c-0.6796655476093294,-0.6306325331032276 -1.0471704187095165,-3.1143246342241766 0.3145880534648897,-3.186174992114305 c1.5773095458447934,-0.08301629188656809 2.470584265559912,0.429645721167326 4.332382390618324,-1.8215036675930025 c1.6933381643295289,-2.0472497244775294 3.073059225976467,-1.4370071578025818 2.7817739912867547,0.7796734781861306 C84.59886592620654,28.63724389698892 84.31437734699293,29.190200367508226 84.24204151371163,29.93540509292274 L84.24204151371163,29.93540509292274 z" id="svg_8"/><path fill-rule="evenodd" clip-rule="evenodd" fill="#FFFFFF" d="M127.98434520706576,37.84962491944223 c0.6864622030854226,-2.3128047634363176 1.4884675492644308,-6.087375929623842 0.9767764869928359,-7.483603154569864 c-0.7680220687985422,-2.0933698866367343 -3.695924152821303,-2.8609064800441266 -5.142155343055725,-0.7185035789012908 c-0.8869635396301747,1.3136964084506035 -0.9097808830142021,6.016496522516013 0.21894940140843397,8.767685564160347 c0.2694388420879842,0.6573336796164514 -0.23254271236062055,1.5748821688890455 -1.0869794007837772,1.8554869449734688 c-3.219187318712473,1.0554235003590584 -0.7170471527278425,-7.7870252740383155 -2.5958369164764887,-10.612006575137377 c-0.40585742700099947,-0.6068442389369012 -0.8981294736266139,-0.6675286628305914 -0.9539591436088087,-1.1214481535553933 c-0.1971030088067055,-1.6195459048748018 1.7501387850940227,-2.655550389587879 2.6089447520375253,-1.6511018052995206 c0.23011533540487294,0.26846789130568516 0.09515317666530614,0.710250497251749 0.4243054918646814,0.9092954076230528 c3.572613403469324,-3.266763907045126 8.88565608420968,-0.8117148540019989 9.213837448626757,3.8672969658970833 c0.1097174383997917,1.572454791933298 -0.3543970355391503,4.987774168670178 -1.2559248369038105,7.148625134676695 c-0.254389104962349,0.6058732881546022 -0.5403341103494167,1.1131950719058514 -0.858320491552353,1.4539987964928152 c-0.7680220687985422,0.5568402736485007 -1.217086805611849,0.22234772914648063 -1.4928368277847768,0.038352555900812164 C127.43624349045797,39.8973601193109 127.75762819939894,38.61813246363192 127.98434520706576,37.84962491944223 L127.98434520706576,37.84962491944223 z" id="svg_9"/><path fill-rule="evenodd" clip-rule="evenodd" fill="#FFFFFF" d="M38.92437017607732,18.652957002607874 c-2.116672705411911,-3.520667536616325 -6.858796326160431,-1.5059446633458138 -5.84609466022253,2.557484360575676 c1.3598165706098082,5.452374118000269 7.998692544579505,6.75830292019248 10.445003040581941,11.619368011772632 c1.3428249319195749,2.668658225148916 0.5014960790574549,5.338287401080132 -1.5535212516784669,6.508768569141626 c-2.10793414837122,1.2010661177039148 -5.671808994799854,1.6768320010304452 -7.859361107319593,0.0713648824989796 c-1.0971743839979171,-0.804432723134756 -1.0059050104618072,-1.4122479128539562 -1.585562627494335,0.1019498321413994 c-0.18642255020141604,0.487417292714119 -0.4956703743636609,1.0219256983697413 -1.1000872363448142,0.5092636853158472 c-0.9495898650884628,-0.8073455754816533 -0.9306563248336315,-3.3682282637953755 0.670926990568638,-4.459091467708349 c1.0199837968051433,-0.5437324380874634 1.7117862291932104,-0.25633100652694696 2.656521340370179,0.6777236460447315 c2.293871223181486,1.88461546844244 5.2101218978166575,1.3248623424470427 5.966492557227611,-0.23497008931636817 c0.485475391149521,-1.00299215811491 -0.0038838031291961693,-2.5720486223101617 -0.9792038639485836,-3.667281104743481 c-1.4088495851159097,-1.5841062013208866 -3.6318414011895657,-2.9492630012333394 -5.46159815043211,-5.085840197682381 c-2.41184174323082,-2.8191555964052677 -4.252764426469803,-5.973774688094855 -3.0502418825924402,-9.080817191451787 c1.0471704187095165,-2.7040979287028315 4.054690466880799,-5.194586685299873 7.6035155761837965,-3.398327738046646 c2.0967682143747806,1.061734680444002 4.144988889634609,3.484742357671261 2.971109393835068,5.890272920817137 c-0.8092874770462514,1.6593548869490626 -3.31336954459548,2.192406866431236 -4.470742877095938,0.47528040793538096 C36.63341180524272,20.103071995971494 39.510338973194784,19.61031447395473 38.92437017607732,18.652957002607874 L38.92437017607732,18.652957002607874 z" id="svg_10"/><path fill-rule="evenodd" clip-rule="evenodd" fill="#FFFFFF" d="M141.6820333683495,27.466762728927428 c0.3034221194684507,-2.598749768823385 -0.7680220687985422,-10.153717805892228 -2.7337119275629522,-10.342567733049393 c-0.5291681763529776,-0.05243134224414829 -0.6534498764872554,-1.3622439475655557 -0.29128523468971257,-2.1394900487959383 c0.3611936910152436,-0.7782170520126821 1.2102901501357555,-1.0238675999343396 2.625450915336609,-0.4291602457761765 c2.2652281751036645,0.9505608158707618 2.4385428897440433,9.605130613893271 2.4832066257297996,12.212618939757347 c0.04272183442115786,2.506023969113827 -0.07670511180162434,5.61306647247076 0.29953831633925454,7.986555659800768 c0.14515714195370677,0.9024987521469593 0.39080768987536446,1.6195459048748018 0.6432548932731155,2.204058275818825 c0.4131395578682423,0.9510462912619114 0.8248226895630362,1.6088654462695124 0.5578112244307996,2.1477431304454804 c-0.5748028631210327,1.1646554633677006 -2.328825451344252,1.6219732818305492 -2.9249892316758634,1.0461994679272175 c-0.4136250332593918,-0.4005171976983548 -0.5966492557227613,-1.1219336289465427 -0.7005409894287585,-1.9695736618936064 c-3.3857053778767585,5.477618838340044 -8.758461531728507,1.1665973649322987 -9.517259568095207,-4.0998396782577045 C131.39189697754423,29.000864964959913 135.9441997203533,23.100882536319787 141.6820333683495,27.466762728927428 L141.6820333683495,27.466762728927428 zM136.3918080309932,37.55833968475252 c4.261017508119345,3.1376274529993533 5.61355194786191,-4.94505233424902 3.4730909482836725,-7.981700905889272 C137.2676056366269,25.895278887776428 130.6932978896801,33.04244759627967 136.3918080309932,37.55833968475252 L136.3918080309932,37.55833968475252 z" id="svg_11"/><path fill-rule="evenodd" clip-rule="evenodd" fill="#FFFFFF" d="M95.62983776390595,27.2419876228252 c-0.9811457655131818,-0.7641382656693458 -3.0531547349393366,-1.6705208209455011 -4.951363514333964,-1.4719613859653473 c-2.649239209502935,0.2772064483463765 -5.099433508634567,2.0797765756845474 -4.848928206801414,4.8945628935694705 c0.10826101222634318,1.2020370684862136 0.22768795844912537,6.3325410021543505 0.6816074491739273,8.442417052090168 c0.15486664977669723,0.71947452968359 0.5616950275599959,1.3942853233814239 1.265634344726801,1.585077152103186 c0.661702958136797,0.18108232089877133 1.5020608602166172,-0.0053402293026447315 1.8234455691576006,-0.767051118016243 c0.43595690125226993,-1.0301787800192832 -0.04514921137690547,-1.985108874410391 -0.29128523468971257,-2.8594500538706784 c-0.5024670298397539,-1.7753835054337979 -0.7296695128977301,-4.249366098731756 -0.8723992778956892,-5.778128105461597 c-0.29225618547201165,-3.1424822069108487 4.4187970102429395,-3.574069829642773 5.53199208214879,-1.744798555791378 c-0.8000634446144106,1.2505846076011657 0.35828083866834654,2.0365692658722403 1.808881307423115,0.9000713751912116 C97.08626393735452,29.417888325957353 96.56097956413072,27.97068618494063 95.62983776390595,27.2419876228252 L95.62983776390595,27.2419876228252 z" id="svg_12"/><path fill-rule="evenodd" clip-rule="evenodd" fill="#FFFFFF" d="M111.26845653900548,29.61887513789325 c-1.007361436635256,2.351642794728279 -0.6083006651103496,11.77472013694048 4.069740204006434,7.3102884399294865 c1.0209547475874425,-0.9743491100370886 1.149120250850916,-4.101781579822302 0.7680220687985422,-6.779663837403059 c-0.0893274719715119,-0.6170392221510411 -0.5903380756378175,-2.4972854120731354 -0.7592835117578506,-3.0628642427623274 c-0.21458012288808825,-0.722387382030487 0.3636210679709913,-1.7302342940568924 1.2437879521250725,-2.0389966428279878 c0.7131633495986461,-0.2485634002685547 1.5180815481245518,0.1975884841978551 1.8103377335965636,0.9214322924017907 c0.4883882434964181,1.206891822397709 0.16603258377313623,3.1852040413320064 0.11360124152898793,3.994976993769407 c-0.15438117438554766,2.415725546360016 -0.534993881046772,5.388291366368533 0.2937126116454603,6.952007601261139 c0.3524551339745523,0.6670431874394418 0.8427852790355684,0.7350097422003747 0.8597769177258016,1.2321365427374842 c0.061169899284839645,1.7782963577806952 -1.976855792760849,2.91770710080862 -2.7511890416443348,1.8137360613346099 c-0.20584156584739693,-0.29419808703660977 -0.03398327738046647,-0.7801589535772803 -0.3495422816276552,-0.9991083549857138 c-3.847392474859953,3.5876631405949593 -8.08462168881297,0.7733622981011866 -8.020538937181234,-4.364909241825342 c0.014078786343336109,-1.122904579728842 -0.1369040603041649,-2.955574181318283 0.2558455311357975,-4.545506087332964 c0.3034221194684507,-1.2379622474312781 0.4966413251459598,-2.416696497142315 1.1190207765996456,-3.0866525369286535 c0.8151131817400454,-0.6116989928483967 1.236991296648979,-0.244194121748209 1.4962351555228233,-0.04223635903000834 C111.99084392103595,27.37015312608867 111.56216915065093,28.775118908075385 111.26845653900548,29.61887513789325 L111.26845653900548,29.61887513789325 z" id="svg_13"/><path fill-rule="evenodd" clip-rule="evenodd" fill="#FFFFFF" d="M45.04281653073472,31.026753772226865 c-0.04903301450610162,0.030584949642419833 -0.09709507822990422,0.059227997720241565 -0.1437007157802582,0.08495819345116616 c-1.446716665625572,0.8073455754816533 -1.0107597643733024,-0.8403579020798206 -0.23254271236062055,-1.8108232089877128 c0.7859846582710746,-0.979689339339733 1.4462311902344227,-1.3447668334841731 2.0564737569093703,-1.2598086400330069 c0.5461598150432111,0.07573416101932527 0.9612412744760515,0.3976043453514577 1.059792778879404,0.8680299993753434 c0.39323506683111187,1.902092582523823 -1.7491678343117238,7.23503975430131 0.5170312915742397,8.640976487070322 c0.45537591689825074,0.2825466776490213 0.9641541268229483,0.18448064863681796 1.3049578514099123,-0.21263822132349022 c0.4257619180381298,-0.4956703743636609 0.4845044403672219,-1.3054433268010617 1.0165854690670966,-1.4666211566627025 c0.23982484322786338,-0.07282130867242813 0.4364423766434194,0.029128523468971258 0.5252843732237816,0.6646158104836944 c0.15777950212359435,1.9142294673025608 -0.6947152847349645,4.65085424721241 -3.3026890859901905,3.7129157915115356 c-2.321057845085859,-1.0563944511413574 -2.2195934883356094,-5.49218310007453 -2.2113404066860674,-7.925871235907078 C45.63266913098139,32.1564550074318 45.57052828091425,30.701485260156684 45.04281653073472,31.026753772226865 L45.04281653073472,31.026753772226865 z" id="svg_14"/><path fill-rule="evenodd" clip-rule="evenodd" fill="#D8EAC1" d="M17.94115281981272,30.37233294495731 c6.439345588207244,0.23497008931636817 3.354634952843189,-6.350018116235733 -0.8743411794602873,-7.8054733389019955 C12.876188063949769,21.124512218950088 10.54687713721437,30.37233294495731 17.94115281981272,30.37233294495731 L17.94115281981272,30.37233294495731 z" id="svg_15"/></g><path display="none" fill="#FDFDFE" d="M222.45591442319792,-97.01301136493892 " id="svg_16"/><path fill="#FFFFFF" d="M61.21497276070757,28.02845775648742 c-0.21603654906153685,-0.5024670298397539 -0.560238601386547,-0.8214243618249892 -1.1010581871271132,-0.8010343953967095 c-1.2729164755940436,0.10097888135910035 -1.5214798758625987,0.05048944067955019 -2.7113800595700743,0.12185432317852973 c-1.1903856590986253,0.07087940710783004 -2.20891302973032,0.12185432317852973 -3.056067587286234,0.15292474821209917 c0.16554710838198672,-1.4578825996220113 0.3310942167639733,-2.9167361500263214 0.49712680053710945,-4.3755897004306314 c0.4602306708097459,-4.239171115517616 0.4806206372380257,-6.84860134294629 0.06165537467598916,-7.828290682286024 c-0.3165299550294878,-0.7418063976764679 -0.8238517387807369,-1.0321206815838813 -1.5209944004714488,-0.87142832711339 c-1.0860084500014782,0.20098681193590168 -1.3442813580930233,2.0778346741199494 -1.4637083043158055,5.605298866212368 c-0.056800620764493964,1.9923910052776335 0.10777553683519367,4.515892088472843 0.38061270666122443,7.840913042455911 c-0.25924385887384416,0.06359727624058727 -1.0510542218387127,0.2937126116454603 -1.5709983657598494,0.4480937860310078 c-0.5199441439211369,0.15389569899439817 -0.9345401279628276,0.3175009058117868 -1.2437879521250725,0.4898446696698667 c-0.17816946855187424,0.08787104579806329 -0.26604051434993753,0.2723516944348813 -0.2655550389587879,0.5548983720839026 c0.0004854753911495212,0.2825466776490213 0.08107439032197002,0.6087861405014993 0.23885389244556432,0.979689339339733 c0.41896526256203664,0.979689339339733 1.0675603851377964,2.468156888604164 1.9467563185095789,4.466373598575592 c0.8777395071983338,1.9977312345802787 1.4695340090095999,3.3541494774520397 1.7753835054337979,4.069740204006434 c0.5320810286998752,1.2442734275162222 1.221941559523344,1.850146715670824 2.0695815924704073,1.8195617660284042 c0.6825783999562264,-0.025244720339775092 1.090377728521824,-0.12136884778738022 1.2224270349144934,-0.28691595616936694 c0.13302025717496874,-0.16651805916428575 0.06359727624058727,-0.5675207322537902 -0.20875441819429405,-1.2030080192685129 c-0.7466611515879631,-1.7477114081382754 -1.247186279863119,-3.477460226804018 -1.5010899094343184,-5.189246455997228 c-0.13787501108646394,-0.8821087857186796 -0.20681251662969588,-2.5982642934322357 -0.2174929752349854,-4.076536859482527 c2.5618536390960216,-0.4980977513194085 4.4755976310074335,-0.4476083106398584 5.999990359216929,-0.8534657376408576 l0.07913248875737193,-0.02864304807782174 c0.5883961740732193,-0.37041772344708457 0.2631276620030404,-0.1786549439430237 0.46702732628583915,-0.40148814848065384 C61.29798905259413,28.43965541279107 61.3271175760631,28.29304184466391 61.21497276070757,28.02845775648742 zM53.40076086476488,36.4092194339016 l-0.09126937353610999,0.10000793057680132 l-0.14418619117140774,0.0067966554760932945 c0,0 -0.06602465319633487,-0.11117386457324033 -0.25196172800660127,-0.43984070438146605 c-0.18593707481026658,-0.3281813644170763 -0.8704573763310911,-2.4463104960024356 -0.9088099322319032,-2.4827211503386497 c-0.037867080509662636,-0.03689612972736361 -0.6417984670996667,-1.9933619560599327 -0.7121923988163471,-2.199688997298479 c-0.07185035789012909,-0.20681251662969588 -0.016506163299083713,-0.3432311015427113 -0.016506163299083713,-0.3432311015427113 s0.07670511180162434,-0.1568085513412953 0.23982484322786338,-0.2791483499109746 c0.16311973142623912,-0.1228252739608288 0.7723913473188879,-0.28643048077821737 0.7723913473188879,-0.28643048077821737 l0.12136884778738022,-0.005825704693794253 l0.10437720909714698,0.16651805916428575 l0.06942298093438153,0.4170233609974386 l0.17282923924922944,1.0418301894068718 l0.5320810286998752,2.991984835654497 l0.17768399316072472,1.1374688414633274 L53.40076086476488,36.4092194339016 z" id="svg_17"/></g><g id="Layer_2" class=""/></g></g></svg>