<?xml version="1.0" encoding="UTF-8" ?>
<!DOCTYPE svg PUBLIC "-//W3C//DTD SVG 1.1//EN" "http://www.w3.org/Graphics/SVG/1.1/DTD/svg11.dtd">
<svg width="150pt" height="50pt" viewBox="0 0 150 50" version="1.1" xmlns="http://www.w3.org/2000/svg">
<g id="#99ac68ff">
<path fill="#99ac68" opacity="1.00" d=" M 12.29 38.02 C 10.70 32.10 14.89 25.64 20.77 24.31 C 23.53 23.53 26.37 24.31 29.01 25.13 C 28.62 27.27 27.75 29.29 26.09 30.75 C 28.32 32.82 30.34 35.21 30.90 38.30 C 28.46 39.73 28.03 42.98 25.58 44.38 C 23.34 45.93 20.55 45.77 17.98 45.64 C 16.06 43.13 12.94 41.33 12.29 38.02 M 19.40 30.45 C 14.96 32.02 14.52 39.06 18.53 41.39 C 21.13 43.24 26.62 43.09 27.03 39.14 C 27.41 35.04 24.08 29.38 19.40 30.45 Z" />
<path fill="#99ac68" opacity="1.00" d=" M 29.11 40.48 C 29.64 41.09 30.16 41.69 30.69 42.30 C 28.98 46.07 25.80 49.03 21.72 50.00 L 17.36 50.00 C 16.07 49.24 11.76 48.51 13.97 46.65 C 17.26 46.85 20.71 48.25 23.91 46.84 C 26.61 45.79 28.59 43.34 29.11 40.48 Z" />
</g>
<g id="#ffffffff">
<path fill="#ffffff" opacity="1.00" d=" M 33.88 32.01 C 32.82 28.54 36.09 24.18 39.85 25.12 C 42.47 25.67 45.25 28.83 43.46 31.47 C 42.35 33.10 40.64 32.07 39.19 31.66 C 39.76 30.94 40.91 29.50 41.49 28.78 C 39.51 27.54 36.25 26.79 35.69 29.91 C 35.55 34.87 40.81 37.04 43.76 40.13 C 44.46 40.12 45.15 40.12 45.85 40.10 C 46.58 38.78 47.69 37.85 49.16 37.32 C 49.11 40.60 48.26 44.01 49.55 47.17 C 50.62 46.11 51.71 45.08 52.84 44.09 L 50.86 42.84 C 51.53 42.38 52.22 41.92 52.89 41.45 C 53.19 42.44 53.78 44.43 54.08 45.42 C 54.01 43.53 53.79 41.66 53.43 39.80 C 52.54 40.40 51.67 41.02 50.80 41.65 C 50.09 39.41 50.87 37.97 53.13 37.34 C 53.13 33.25 52.11 28.81 53.98 24.98 C 55.12 25.10 55.73 25.70 55.80 26.80 C 56.16 30.28 55.50 33.75 55.18 37.21 C 57.41 37.15 59.64 37.11 61.87 37.23 C 60.51 39.63 57.45 39.09 55.18 39.68 C 55.47 43.17 56.34 46.57 57.00 50.00 L 56.02 50.00 C 55.46 49.31 54.35 47.94 53.80 47.25 C 53.28 47.08 52.76 46.92 52.24 46.75 C 51.70 47.45 50.60 48.84 50.06 49.54 C 46.50 48.28 47.46 43.88 47.01 40.97 C 46.30 40.80 44.87 40.45 44.16 40.27 C 45.39 42.26 46.79 44.99 45.11 47.16 C 42.82 49.95 38.77 49.47 35.81 48.14 C 35.28 48.43 34.22 49.01 33.68 49.30 C 33.74 47.59 33.57 45.71 34.94 44.41 C 37.39 45.00 40.03 47.65 42.47 45.61 C 43.46 43.93 42.22 42.19 40.98 41.07 C 38.21 38.43 34.89 35.90 33.88 32.01 Z" />
<path fill="#ffffff" opacity="1.00" d=" M 73.15 28.01 C 74.42 25.42 77.93 23.83 80.49 25.60 C 82.33 27.16 81.01 29.56 79.68 30.94 C 78.77 29.98 77.85 29.03 76.92 28.08 C 73.44 30.45 72.55 34.97 72.56 38.91 C 72.62 41.96 73.84 45.52 76.97 46.64 C 79.72 45.75 79.98 42.49 79.82 40.07 C 78.37 40.44 77.07 41.22 75.63 41.61 C 75.61 40.94 75.56 39.59 75.53 38.92 C 78.21 38.28 80.43 36.75 82.67 35.23 C 81.97 39.80 83.47 44.26 83.29 48.78 C 82.68 48.89 81.48 49.11 80.88 49.22 C 81.04 47.89 81.20 46.56 81.41 45.23 C 79.99 46.93 78.68 49.73 76.01 49.27 C 73.57 48.64 72.26 46.20 71.44 44.02 C 69.68 38.77 70.59 32.84 73.15 28.01 Z" />
<path fill="#ffffff" opacity="1.00" d=" M 131.77 26.80 C 131.10 24.14 135.18 24.75 135.41 26.83 C 137.70 33.74 135.26 41.37 138.16 48.15 C 137.57 48.50 136.39 49.20 135.80 49.55 C 135.35 48.90 134.91 48.24 134.48 47.59 C 133.37 48.75 131.86 50.13 130.11 49.37 C 125.31 47.33 124.24 39.75 128.56 36.64 C 130.48 35.10 132.84 36.31 134.87 36.87 C 134.51 33.34 134.15 29.63 131.77 26.80 M 129.35 39.22 C 126.66 41.54 127.84 46.13 131.10 47.25 C 134.21 46.92 134.20 42.68 133.51 40.39 C 133.20 38.36 130.67 37.61 129.35 39.22 Z" />
<path fill="#ffffff" opacity="1.00" d=" M 45.83 32.77 C 47.68 32.47 50.16 33.64 48.75 35.84 C 46.91 38.06 45.54 34.30 45.83 32.77 Z" />
<path fill="#ffffff" opacity="1.00" d=" M 111.12 35.24 C 112.89 34.24 113.44 36.01 114.05 37.28 C 117.49 36.85 122.21 34.75 124.63 38.39 C 126.65 42.08 124.70 46.33 123.58 50.00 L 122.30 50.00 C 121.83 46.62 123.29 43.38 123.11 40.01 C 122.37 38.06 119.53 37.42 118.39 39.35 C 117.19 42.70 118.59 46.26 118.42 49.71 C 117.87 49.39 116.78 48.75 116.23 48.44 C 115.58 44.70 116.66 40.42 113.84 37.34 C 113.21 40.96 113.31 44.65 114.56 48.12 C 113.69 49.08 112.65 49.24 111.45 48.59 C 109.77 48.93 107.81 50.10 106.34 48.62 C 103.92 46.53 104.34 42.91 104.61 40.06 C 105.07 38.81 105.08 35.39 107.30 36.67 C 106.72 40.33 106.13 44.15 107.92 47.60 C 108.96 46.71 110.85 46.42 111.17 44.89 C 112.34 41.71 110.14 38.32 111.12 35.24 Z" />
<path fill="#ffffff" opacity="1.00" d=" M 95.35 36.38 C 98.32 33.78 102.58 36.99 103.55 40.10 C 105.31 44.60 101.09 50.85 96.05 49.23 C 92.24 46.41 92.29 39.75 95.35 36.38 M 96.52 46.45 C 98.17 48.29 100.93 46.53 101.53 44.58 C 102.42 41.59 100.55 38.44 97.89 37.06 C 95.50 39.43 94.88 43.53 96.52 46.45 Z" />
<path fill="#ffffff" opacity="1.00" d=" M 61.22 46.86 C 59.82 43.40 60.19 38.22 63.96 36.42 C 66.78 36.20 69.27 39.17 68.33 41.90 C 67.57 44.21 64.93 44.90 63.07 46.08 C 63.67 46.62 64.28 47.15 64.91 47.67 C 67.07 46.45 67.94 43.64 70.28 42.80 C 71.70 45.03 68.90 47.07 67.36 48.35 C 65.38 50.00 62.08 49.39 61.22 46.86 M 62.58 44.11 C 64.59 43.32 68.42 40.28 64.84 38.73 C 62.40 39.28 62.94 42.25 62.58 44.11 Z" />
</g>
<g id="#3b3e36ff">
<path fill="#3b3e36" opacity="1.00" d=" M 19.40 30.45 C 24.08 29.38 27.41 35.04 27.03 39.14 C 26.62 43.09 21.13 43.24 18.53 41.39 C 14.52 39.06 14.96 32.02 19.40 30.45 M 18.49 33.41 C 16.82 35.38 17.34 38.89 19.94 39.75 C 21.79 40.12 24.88 40.57 25.42 38.12 C 25.41 34.99 21.43 31.01 18.49 33.41 Z" />
</g>
<g id="#d7eac1ff">
<path fill="#d7eac1" opacity="1.00" d=" M 18.49 33.41 C 21.43 31.01 25.41 34.99 25.42 38.12 C 24.88 40.57 21.79 40.12 19.94 39.75 C 17.34 38.89 16.82 35.38 18.49 33.41 Z" />
</g>
<g id="#fbfbfbfb">
<path fill="#fbfbfb" opacity="1.00" d=" M 86.23 36.21 C 89.48 34.20 96.40 37.51 91.90 41.23 C 91.51 40.48 90.74 38.97 90.36 38.22 C 88.84 38.33 86.80 38.22 86.21 39.99 C 86.06 43.10 87.44 46.07 87.25 49.14 C 84.44 51.09 84.12 47.05 84.02 45.21 C 83.99 42.19 82.63 37.75 86.23 36.21 Z" />
</g>
</svg>
