<svg xmlns="http://www.w3.org/2000/svg" width="150" height="60" version="1.1"><rect id="backgroundrect" width="100%" height="100%" x="0" y="0" fill="none" stroke="none"/>





<g class="currentLayer"><title>Layer 1</title><g id="#fbfbfbfb" class="selected">
<path fill="#fbfbfb" opacity="1.00" d="M87.43646893233061,26.14099743127823 C90.68646893233061,24.13099743127823 97.60646893233061,27.440997431278227 93.10646893233061,31.160997431278226 C92.71646893233061,30.410997431278226 91.9464689323306,28.900997431278228 91.56646893233061,28.150997431278228 C90.04646893233061,28.260997431278227 88.0064689323306,28.150997431278228 87.4164689323306,29.92099743127823 C87.26646893233061,33.03099743127823 88.6464689323306,36.00099743127823 88.45646893233061,39.07099743127823 C85.6464689323306,41.02099743127823 85.32646893233061,36.980997431278226 85.2264689323306,35.14099743127823 C85.1964689323306,32.12099743127823 83.8364689323306,27.68099743127823 87.43646893233061,26.14099743127823 z" id="svg_12"/>
</g><g id="#99ac68ff" class="selected">
<path fill="#99ac68" opacity="1.00" d="M13.496468932330608,27.950997431278232 C11.906468932330608,22.03099743127823 16.09646893233061,15.57099743127823 21.976468932330608,14.240997431278227 C24.73646893233061,13.46099743127823 27.57646893233061,14.240997431278227 30.21646893233061,15.060997431278228 C29.82646893233061,17.20099743127823 28.95646893233061,19.220997431278228 27.29646893233061,20.68099743127823 C29.52646893233061,22.75099743127823 31.54646893233061,25.14099743127823 32.10646893233061,28.230997431278226 C29.66646893233061,29.660997431278226 29.23646893233061,32.910997431278226 26.786468932330607,34.31099743127823 C24.54646893233061,35.86099743127823 21.75646893233061,35.70099743127823 19.18646893233061,35.57099743127823 C17.266468932330607,33.06099743127823 14.146468932330608,31.260997431278227 13.496468932330608,27.950997431278232 M20.606468932330607,20.380997431278228 C16.16646893233061,21.950997431278232 15.726468932330608,28.99099743127823 19.73646893233061,31.32099743127823 C22.336468932330607,33.17099743127823 27.82646893233061,33.02099743127823 28.23646893233061,29.07099743127823 C28.61646893233061,24.970997431278228 25.286468932330607,19.310997431278228 20.606468932330607,20.380997431278228 z" id="svg_1"/>
<path fill="#99ac68" opacity="1.00" d="M30.316468932330608,30.410997431278226 C30.84646893233061,31.020997431278232 31.36646893233061,31.620997431278226 31.896468932330606,32.230997431278226 C30.18646893233061,36.00099743127823 27.00646893233061,38.96099743127823 22.926468932330607,39.93099743127823 L18.566468932330608,39.93099743127823 C17.27646893233061,39.17099743127823 12.966468932330608,38.44099743127823 15.176468932330609,36.58099743127823 C18.46646893233061,36.78099743127823 21.91646893233061,38.18099743127823 25.11646893233061,36.77099743127823 C27.816468932330608,35.72099743127823 29.79646893233061,33.27099743127823 30.316468932330608,30.410997431278226 z" id="svg_2"/>
</g><g id="#ffffffff" class="selected">
<path fill="#ffffff" opacity="1.00" d="M35.08646893233061,21.940997431278227 C34.02646893233061,18.470997431278228 37.29646893233061,14.110997431278228 41.05646893233061,15.05099743127823 C43.67646893233061,15.60099743127823 46.45646893233061,18.760997431278227 44.66646893233061,21.400997431278228 C43.55646893233061,23.03099743127823 41.84646893233061,22.00099743127823 40.396468932330606,21.59099743127823 C40.966468932330606,20.87099743127823 42.116468932330605,19.43099743127823 42.69646893233061,18.71099743127823 C40.716468932330606,17.470997431278228 37.45646893233061,16.720997431278228 36.896468932330606,19.84099743127823 C36.756468932330606,24.800997431278226 42.01646893233061,26.970997431278228 44.966468932330606,30.06099743127823 C45.66646893233061,30.050997431278226 46.35646893233061,30.050997431278226 47.05646893233061,30.03099743127823 C47.78646893233061,28.71099743127823 48.896468932330606,27.78099743127823 50.366468932330605,27.25099743127823 C50.31646893233061,30.53099743127823 49.466468932330606,33.94099743127823 50.756468932330606,37.10099743127823 C51.826468932330606,36.04099743127823 52.91646893233061,35.01099743127823 54.04646893233061,34.02099743127823 L52.06646893233061,32.77099743127823 C52.73646893233061,32.31099743127823 53.42646893233061,31.85099743127823 54.09646893233061,31.38099743127823 C54.396468932330606,32.37099743127823 54.98646893233061,34.36099743127823 55.28646893233061,35.35099743127823 C55.216468932330606,33.46099743127823 54.99646893233061,31.590997431278225 54.63646893233061,29.730997431278226 C53.74646893233061,30.330997431278227 52.87646893233061,30.950997431278232 52.006468932330606,31.580997431278227 C51.29646893233061,29.340997431278225 52.076468932330606,27.900997431278228 54.33646893233061,27.270997431278232 C54.33646893233061,23.18099743127823 53.31646893233061,18.740997431278227 55.186468932330605,14.91099743127823 C56.326468932330606,15.03099743127823 56.936468932330605,15.630997431278228 57.006468932330606,16.73099743127823 C57.366468932330605,20.21099743127823 56.70646893233061,23.68099743127823 56.38646893233061,27.14099743127823 C58.616468932330605,27.080997431278227 60.84646893233061,27.040997431278228 63.076468932330606,27.160997431278226 C61.716468932330606,29.56099743127823 58.65646893233061,29.020997431278232 56.38646893233061,29.61099743127823 C56.67646893233061,33.10099743127823 57.54646893233061,36.50099743127823 58.20646893233061,39.93099743127823 L57.22646893233061,39.93099743127823 C56.66646893233061,39.24099743127823 55.55646893233061,37.87099743127823 55.006468932330606,37.18099743127823 C54.48646893233061,37.01099743127823 53.966468932330606,36.85099743127823 53.44646893233061,36.68099743127823 C52.90646893233061,37.38099743127823 51.80646893233061,38.77099743127823 51.26646893233061,39.47099743127823 C47.70646893233061,38.21099743127823 48.66646893233061,33.81099743127823 48.216468932330606,30.900997431278228 C47.506468932330606,30.730997431278226 46.076468932330606,30.38099743127823 45.366468932330605,30.200997431278232 C46.59646893233061,32.19099743127823 47.99646893233061,34.92099743127823 46.31646893233061,37.090997431278225 C44.02646893233061,39.88099743127823 39.97646893233061,39.40099743127822 37.01646893233061,38.07099743127823 C36.48646893233061,38.36099743127823 35.42646893233061,38.94099743127823 34.88646893233061,39.230997431278226 C34.94646893233061,37.52099743127823 34.77646893233061,35.64099743127823 36.146468932330606,34.340997431278225 C38.59646893233061,34.93099743127823 41.23646893233061,37.58099743127823 43.67646893233061,35.54099743127823 C44.66646893233061,33.86099743127823 43.42646893233061,32.12099743127823 42.186468932330605,31.00099743127823 C39.41646893233061,28.36099743127823 36.09646893233061,25.830997431278227 35.08646893233061,21.940997431278227 z" id="svg_3"/>
<path fill="#ffffff" opacity="1.00" d="M74.35646893233061,17.94099743127823 C75.62646893233061,15.35099743127823 79.13646893233062,13.760997431278227 81.6964689323306,15.53099743127823 C83.5364689323306,17.09099743127823 82.21646893233061,19.490997431278227 80.88646893233062,20.87099743127823 C79.9764689323306,19.91099743127823 79.0564689323306,18.96099743127823 78.12646893233061,18.010997431278227 C74.6464689323306,20.380997431278228 73.7564689323306,24.900997431278228 73.76646893233061,28.840997431278225 C73.82646893233061,31.89099743127823 75.04646893233061,35.45099743127823 78.17646893233061,36.57099743127823 C80.92646893233061,35.68099743127823 81.18646893233061,32.42099743127823 81.0264689323306,30.00099743127823 C79.57646893233061,30.370997431278226 78.2764689323306,31.150997431278228 76.8364689323306,31.540997431278228 C76.81646893233061,30.870997431278226 76.76646893233061,29.520997431278232 76.73646893233061,28.85099743127823 C79.4164689323306,28.21099743127823 81.63646893233062,26.68099743127823 83.87646893233061,25.160997431278226 C83.17646893233061,29.730997431278226 84.67646893233061,34.19099743127823 84.49646893233061,38.71099743127823 C83.88646893233062,38.82099743127823 82.68646893233061,39.04099743127823 82.0864689323306,39.15099743127823 C82.24646893233061,37.82099743127823 82.40646893233061,36.49099743127823 82.6164689323306,35.160997431278226 C81.1964689323306,36.86099743127823 79.88646893233062,39.660997431278226 77.21646893233061,39.20099743127823 C74.7764689323306,38.57099743127823 73.46646893233061,36.13099743127823 72.6464689323306,33.95099743127823 C70.88646893233062,28.700997431278232 71.79646893233061,22.770997431278232 74.35646893233061,17.94099743127823 z" id="svg_4"/>
<path fill="#ffffff" opacity="1.00" d="M132.97646893233062,16.73099743127823 C132.3064689323306,14.07099743127823 136.38646893233062,14.680997431278229 136.6164689323306,16.760997431278227 C138.9064689323306,23.67099743127823 136.4664689323306,31.300997431278226 139.3664689323306,38.08099743127823 C138.7764689323306,38.43099743127823 137.5964689323306,39.13099743127823 137.00646893233062,39.480997431278226 C136.5564689323306,38.83099743127823 136.1164689323306,38.17099743127823 135.6864689323306,37.52099743127823 C134.5764689323306,38.68099743127823 133.06646893233062,40.06099743127823 131.31646893233062,39.300997431278226 C126.51646893233061,37.26099743127823 125.4464689323306,29.68099743127823 129.7664689323306,26.57099743127823 C131.6864689323306,25.03099743127823 134.0464689323306,26.24099743127823 136.0764689323306,26.800997431278226 C135.7164689323306,23.270997431278232 135.3564689323306,19.560997431278228 132.97646893233062,16.73099743127823 M130.5564689323306,29.150997431278228 C127.8664689323306,31.470997431278228 129.0464689323306,36.06099743127823 132.3064689323306,37.18099743127823 C135.41646893233062,36.85099743127823 135.4064689323306,32.61099743127823 134.7164689323306,30.32099743127823 C134.4064689323306,28.290997431278228 131.8764689323306,27.540997431278228 130.5564689323306,29.150997431278228 z" id="svg_5"/>
<path fill="#ffffff" opacity="1.00" d="M47.03646893233061,22.700997431278232 C48.88646893233061,22.400997431278228 51.366468932330605,23.57099743127823 49.95646893233061,25.770997431278232 C48.116468932330605,27.99099743127823 46.74646893233061,24.230997431278226 47.03646893233061,22.700997431278232 z" id="svg_6"/>
<path fill="#ffffff" opacity="1.00" d="M112.32646893233061,25.17099743127823 C114.09646893233061,24.17099743127823 114.6464689323306,25.940997431278227 115.2564689323306,27.21099743127823 C118.6964689323306,26.78099743127823 123.4164689323306,24.68099743127823 125.8364689323306,28.32099743127823 C127.85646893233061,32.01099743127823 125.90646893233061,36.26099743127823 124.7864689323306,39.93099743127823 L123.5064689323306,39.93099743127823 C123.0364689323306,36.550997431278226 124.49646893233061,33.31099743127823 124.31646893233061,29.940997431278227 C123.57646893233061,27.99099743127823 120.73646893233061,27.35099743127823 119.59646893233061,29.28099743127823 C118.3964689323306,32.63099743127823 119.79646893233061,36.19099743127823 119.62646893233061,39.64099743127823 C119.07646893233061,39.32099743127823 117.98646893233061,38.68099743127823 117.43646893233061,38.37099743127823 C116.7864689323306,34.63099743127823 117.8664689323306,30.35099743127823 115.04646893233061,27.270997431278232 C114.4164689323306,30.89099743127823 114.51646893233061,34.58099743127823 115.76646893233061,38.050997431278226 C114.8964689323306,39.01099743127823 113.85646893233061,39.17099743127823 112.65646893233061,38.52099743127823 C110.9764689323306,38.86099743127823 109.01646893233061,40.03099743127823 107.54646893233061,38.550997431278226 C105.12646893233061,36.46099743127823 105.54646893233061,32.840997431278225 105.81646893233061,29.99099743127823 C106.2764689323306,28.74099743127823 106.2864689323306,25.32099743127823 108.5064689323306,26.60099743127823 C107.92646893233061,30.260997431278227 107.3364689323306,34.08099743127823 109.12646893233061,37.53099743127823 C110.1664689323306,36.64099743127823 112.0564689323306,36.35099743127823 112.37646893233061,34.82099743127823 C113.54646893233061,31.64099743127823 111.34646893233061,28.25099743127823 112.32646893233061,25.17099743127823 z" id="svg_7"/>
<path fill="#ffffff" opacity="1.00" d="M96.5564689323306,26.31099743127823 C99.5264689323306,23.71099743127823 103.7864689323306,26.92099743127823 104.7564689323306,30.03099743127823 C106.51646893233061,34.53099743127823 102.29646893233061,40.78099743127823 97.2564689323306,39.160997431278226 C93.4464689323306,36.340997431278225 93.49646893233061,29.68099743127823 96.5564689323306,26.31099743127823 M97.7264689323306,36.38099743127823 C99.37646893233061,38.22099743127823 102.13646893233062,36.46099743127823 102.73646893233061,34.51099743127823 C103.62646893233061,31.520997431278232 101.7564689323306,28.370997431278226 99.09646893233061,26.99099743127823 C96.70646893233061,29.36099743127823 96.0864689323306,33.46099743127823 97.7264689323306,36.38099743127823 z" id="svg_8"/>
<path fill="#ffffff" opacity="1.00" d="M62.42646893233061,36.79099743127823 C61.02646893233061,33.33099743127823 61.396468932330606,28.150997431278228 65.16646893233062,26.35099743127823 C67.98646893233061,26.13099743127823 70.4764689323306,29.10099743127823 69.5364689323306,31.830997431278227 C68.7764689323306,34.14099743127823 66.13646893233062,34.83099743127823 64.2764689323306,36.01099743127823 C64.87646893233061,36.550997431278226 65.48646893233061,37.08099743127823 66.1164689323306,37.60099743127823 C68.2764689323306,36.38099743127823 69.1464689323306,33.57099743127823 71.48646893233061,32.730997431278226 C72.90646893233061,34.96099743127823 70.10646893233061,37.00099743127823 68.56646893233061,38.28099743127823 C66.5864689323306,39.93099743127823 63.28646893233061,39.32099743127823 62.42646893233061,36.79099743127823 M63.78646893233061,34.04099743127823 C65.79646893233061,33.25099743127823 69.62646893233061,30.21099743127823 66.04646893233061,28.660997431278226 C63.60646893233061,29.21099743127823 64.1464689323306,32.18099743127823 63.78646893233061,34.04099743127823 z" id="svg_9"/>
</g><g id="#3b3e36ff" class="selected">
<path fill="#3b3e36" opacity="1.00" d="M20.606468932330607,20.380997431278228 C25.286468932330607,19.310997431278228 28.61646893233061,24.970997431278228 28.23646893233061,29.07099743127823 C27.82646893233061,33.02099743127823 22.336468932330607,33.17099743127823 19.73646893233061,31.32099743127823 C15.726468932330608,28.99099743127823 16.16646893233061,21.950997431278232 20.606468932330607,20.380997431278228 M19.696468932330607,23.340997431278225 C18.02646893233061,25.31099743127823 18.54646893233061,28.82099743127823 21.14646893233061,29.68099743127823 C22.996468932330608,30.050997431278226 26.086468932330607,30.50099743127823 26.62646893233061,28.050997431278226 C26.61646893233061,24.92099743127823 22.636468932330608,20.94099743127823 19.696468932330607,23.340997431278225 z" id="svg_10"/>
</g><g id="#d7eac1ff" class="selected">
<path fill="#d7eac1" opacity="1.00" d="M19.696468932330607,23.340997431278225 C22.636468932330608,20.94099743127823 26.61646893233061,24.92099743127823 26.62646893233061,28.050997431278226 C26.086468932330607,30.50099743127823 22.996468932330608,30.050997431278226 21.14646893233061,29.68099743127823 C18.54646893233061,28.82099743127823 18.02646893233061,25.31099743127823 19.696468932330607,23.340997431278225 z" id="svg_11"/>
</g></g></svg>