<svg version="1.1" xmlns="http://www.w3.org/2000/svg" xmlns:xlink="http://www.w3.org/1999/xlink">
  <symbol id="logo" viewBox="0 0 173 61">
    <title>logo</title>
    <g id="logo">
      <path fill="#ECEDEB" d="M0.9,42.3L11.4,26H2.1C2.1,25.5,2,25,2,24.4c0-0.5,0-1.1,0.1-1.5h15l0.2,0.5L6.7,39.8h9.9
        c0.1,0.5,0.1,1.1,0.1,1.6c0,0.5,0,1-0.1,1.5H1.1L0.9,42.3z M32.2,29.7c0-1.5-0.4-2.6-1.2-3.2s-1.9-0.9-3.4-0.9
        c-0.9,0-1.8,0.1-2.6,0.2c-0.8,0.1-1.6,0.3-2.3,0.6c-0.5-0.9-0.7-1.9-0.7-3.1c0.9-0.3,1.9-0.5,2.9-0.7c1.1-0.2,2.1-0.2,3.1-0.2
        c2.6,0,4.6,0.6,5.9,1.8c1.3,1.2,2,3.1,2,5.7v12.5c-0.9,0.2-2,0.4-3.3,0.6c-1.3,0.2-2.6,0.3-4,0.3c-1.3,0-2.4-0.1-3.4-0.4
        c-1-0.2-1.9-0.6-2.6-1.1c-0.7-0.5-1.3-1.2-1.7-2c-0.4-0.8-0.6-1.8-0.6-2.9c0-1.1,0.2-2.1,0.7-2.9c0.5-0.8,1.1-1.5,1.8-2.1
        c0.8-0.6,1.7-1,2.7-1.2c1-0.3,2.1-0.4,3.2-0.4c0.8,0,1.5,0,2,0.1c0.5,0,1,0.1,1.3,0.1V29.7z M32.2,33.5c-0.4-0.1-0.9-0.1-1.5-0.2
        c-0.6-0.1-1.1-0.1-1.5-0.1c-1.6,0-2.8,0.3-3.7,0.9c-0.8,0.6-1.3,1.5-1.3,2.7c0,0.8,0.1,1.4,0.4,1.8c0.3,0.4,0.6,0.8,1.1,1
        s0.9,0.4,1.4,0.4c0.5,0.1,1,0.1,1.5,0.1c0.6,0,1.2,0,1.9-0.1c0.6-0.1,1.2-0.2,1.7-0.3V33.5z M42.2,22.9c0.3-0.1,0.6-0.1,0.8-0.1
        c0.3,0,0.5,0,0.8,0c0.3,0,0.6,0,0.9,0c0.3,0,0.5,0.1,0.8,0.1c0.1,0.4,0.2,0.9,0.2,1.5c0.1,0.6,0.1,1.2,0.1,1.6
        c0.5-0.9,1.3-1.6,2.2-2.3c0.9-0.6,2-1,3.4-1c0.2,0,0.4,0,0.6,0c0.2,0,0.4,0,0.6,0.1c0.1,0.2,0.1,0.5,0.1,0.7c0,0.3,0,0.5,0,0.8
        c0,0.3,0,0.6-0.1,1c0,0.3-0.1,0.7-0.1,1c-0.2-0.1-0.4-0.1-0.6-0.1c-0.2,0-0.4,0-0.5,0c-0.7,0-1.4,0.1-2,0.3c-0.6,0.2-1.2,0.5-1.7,1
        c-0.5,0.5-0.9,1.2-1.2,2c-0.3,0.9-0.4,2-0.4,3.3v9.9c-0.3,0.1-0.6,0.1-1,0.1s-0.7,0-1,0c-0.3,0-0.6,0-1,0s-0.7-0.1-1-0.1V22.9z
         M67.2,29.7c0-1.5-0.4-2.6-1.2-3.2s-1.9-0.9-3.4-0.9c-0.9,0-1.8,0.1-2.6,0.2c-0.8,0.1-1.6,0.3-2.3,0.6c-0.5-0.9-0.7-1.9-0.7-3.1
        c0.9-0.3,1.9-0.5,2.9-0.7c1.1-0.2,2.1-0.2,3.1-0.2c2.6,0,4.6,0.6,5.9,1.8c1.3,1.2,2,3.1,2,5.7v12.5c-0.9,0.2-2,0.4-3.3,0.6
        c-1.3,0.2-2.6,0.3-4,0.3c-1.3,0-2.4-0.1-3.4-0.4c-1-0.2-1.9-0.6-2.6-1.1c-0.7-0.5-1.3-1.2-1.7-2c-0.4-0.8-0.6-1.8-0.6-2.9
        c0-1.1,0.2-2.1,0.7-2.9c0.5-0.8,1.1-1.5,1.8-2.1c0.8-0.6,1.7-1,2.7-1.2c1-0.3,2.1-0.4,3.2-0.4c0.8,0,1.5,0,2,0.1
        c0.5,0,1,0.1,1.3,0.1V29.7z M67.2,33.5c-0.4-0.1-0.9-0.1-1.5-0.2c-0.6-0.1-1.1-0.1-1.5-0.1c-1.6,0-2.8,0.3-3.7,0.9
        c-0.8,0.6-1.3,1.5-1.3,2.7c0,0.8,0.1,1.4,0.4,1.8c0.3,0.4,0.6,0.8,1.1,1s0.9,0.4,1.4,0.4c0.5,0.1,1,0.1,1.5,0.1
        c0.6,0,1.2,0,1.9-0.1c0.6-0.1,1.2-0.2,1.7-0.3V33.5z"/>
      <path fill="#ECEDEB" d="M124,14.3c0.3-0.1,0.6-0.1,1-0.1c0.4,0,0.7,0,1,0c0.3,0,0.6,0,1,0c0.4,0,0.7,0.1,1,0.1v22.5
        c0,0.7,0.1,1.3,0.2,1.7c0.1,0.4,0.3,0.7,0.5,1c0.2,0.2,0.5,0.4,0.8,0.4c0.3,0.1,0.6,0.1,1,0.1c0.2,0,0.5,0,0.8,0
        c0.3,0,0.6-0.1,0.8-0.1c0.2,0.9,0.4,1.9,0.4,3c-0.4,0.1-0.8,0.2-1.3,0.3c-0.5,0-1,0.1-1.4,0.1c-0.8,0-1.5-0.1-2.1-0.3
        c-0.6-0.2-1.2-0.5-1.7-0.9c-0.5-0.4-0.9-1-1.2-1.7c-0.3-0.7-0.4-1.6-0.4-2.6V14.3z M145.5,29.7c0-1.5-0.4-2.6-1.2-3.2
        c-0.8-0.6-1.9-0.9-3.4-0.9c-0.9,0-1.8,0.1-2.6,0.2c-0.8,0.1-1.6,0.3-2.3,0.6c-0.5-0.9-0.7-1.9-0.7-3.1c0.9-0.3,1.9-0.5,2.9-0.7
        c1.1-0.2,2.1-0.2,3.1-0.2c2.6,0,4.6,0.6,5.9,1.8c1.4,1.2,2,3.1,2,5.7v12.5c-0.9,0.2-2,0.4-3.3,0.6c-1.3,0.2-2.6,0.3-4,0.3
        c-1.3,0-2.4-0.1-3.4-0.4c-1-0.2-1.9-0.6-2.6-1.1c-0.7-0.5-1.3-1.2-1.7-2c-0.4-0.8-0.6-1.8-0.6-2.9c0-1.1,0.2-2.1,0.7-2.9
        c0.5-0.8,1.1-1.5,1.8-2.1c0.8-0.6,1.7-1,2.7-1.2c1-0.3,2.1-0.4,3.2-0.4c0.8,0,1.5,0,2,0.1c0.5,0,1,0.1,1.3,0.1V29.7z M145.5,33.5
        c-0.4-0.1-0.9-0.1-1.5-0.2c-0.6-0.1-1.1-0.1-1.5-0.1c-1.6,0-2.8,0.3-3.7,0.9c-0.8,0.6-1.3,1.5-1.3,2.7c0,0.8,0.1,1.4,0.4,1.8
        c0.3,0.4,0.6,0.8,1.1,1s0.9,0.4,1.4,0.4c0.5,0.1,1,0.1,1.5,0.1c0.6,0,1.2,0,1.9-0.1c0.6-0.1,1.2-0.2,1.7-0.3V33.5z M154.3,14.3
        c0.3-0.1,0.6-0.1,1-0.1c0.4,0,0.7,0,1,0c0.3,0,0.6,0,1,0c0.4,0,0.7,0.1,1,0.1v11c0.5-0.8,1.2-1.5,2.2-2c1-0.6,2.2-0.9,3.6-0.9
        c1.2,0,2.3,0.2,3.3,0.6c1,0.4,1.9,1,2.6,1.8c0.7,0.8,1.3,1.9,1.7,3.1c0.4,1.3,0.6,2.7,0.6,4.5c0,3.4-1,6.1-2.9,8
        c-1.9,1.9-4.7,2.9-8.4,2.9c-1.1,0-2.3-0.1-3.5-0.3c-1.2-0.2-2.2-0.5-3.1-0.8V14.3z M158.1,39.7c0.5,0.2,1,0.3,1.5,0.3
        c0.5,0.1,1.1,0.1,1.7,0.1c1,0,1.9-0.1,2.7-0.4c0.8-0.3,1.5-0.8,2.1-1.4c0.6-0.6,1.1-1.4,1.4-2.3c0.4-0.9,0.5-2.1,0.5-3.4
        c0-2.2-0.4-3.8-1.1-5c-0.8-1.2-2-1.8-3.7-1.8c-0.6,0-1.2,0.1-1.8,0.3c-0.6,0.2-1.1,0.5-1.6,0.9s-0.9,1-1.2,1.7
        c-0.3,0.7-0.4,1.6-0.4,2.6V39.7z"/>
    </g>
    <g id="logo-flask">
      <path fill="#59A426" d="M87.8,21.6v29.8c0,2.6,2.1,4.8,4.8,4.8h10.7c2.6,0,4.8-2.1,4.8-4.8V21.6C105.6,19.4,90.9,26.3,87.8,21.6z
         M93.7,32.9c-1.3,0-2.4-1.1-2.4-2.4c0-1.3,1.1-2.4,2.4-2.4c1.3,0,2.4,1.1,2.4,2.4C96.1,31.8,95,32.9,93.7,32.9z M103.8,38.2
        c-1,0-1.8-0.8-1.8-1.8s0.8-1.8,1.8-1.8s1.8,0.8,1.8,1.8S104.8,38.2,103.8,38.2z M103.8,28.7c-1.3,0-2.4-1.1-2.4-2.4
        c0-1.3,1.1-2.4,2.4-2.4c1.3,0,2.4,1.1,2.4,2.4C106.2,27.6,105.1,28.7,103.8,28.7z"/>
      <path id="path-5" fill="#59A426" d="M103.8,16.2c-1.6,0-3-1.3-3-3s1.3-3,3-3s3,1.3,3,3S105.4,16.2,103.8,16.2z M96.1,8.5
        c-1.3,0-2.4-1.1-2.4-2.4s1.1-2.4,2.4-2.4c1.3,0,2.4,1.1,2.4,2.4S97.4,8.5,96.1,8.5z M96.7,16.2c0,2.3-1.9,4.2-4.2,4.2
        c-2.3,0-4.2-1.9-4.2-4.2c0-2.3,1.9-4.2,4.2-4.2C94.8,12,96.7,13.9,96.7,16.2z"/>
      <path id="path-4" fill="#59A426" d="M104.4,0.7c6,0,8.9,1.9,8.9,7.7v15.5c0,3.9,1.9,5.4,5.4,5.4v2.4c-3.5,0-5.4,2.2-5.4,6v14.9
        c0,5.9-2.9,7.7-8.9,7.7v-2.4c4.4,0,6-1.3,6-5.4V37.6c0-4.9,0-6.3,3.6-7.1c-3.6-0.9-3.6-1.7-3.6-6.6V8.5c0-4.1-1.5-5.4-6-5.4V0.7z"
        />
      <path id="path-3" fill="#59A426" d="M91.4,0.7c-6,0-8.9,1.9-8.9,7.7v15.5c0,3.9-1.9,5.4-5.4,5.4v2.4c3.5,0,5.4,2.2,5.4,6v14.9
        c0,5.9,2.9,7.7,8.9,7.7v-2.4c-4.4,0-6-1.3-6-5.4V37.6c0-4.9,0-6.3-3.6-7.1c3.6-0.9,3.6-1.7,3.6-6.6V8.5c0-4.1,1.5-5.4,6-5.4V0.7z"
        />
    </g>
  </symbol>
  <symbol id="featured" viewBox="73.5 73.5">
    <title>featured</title>
    <path fill="#F9CD16" d="M73.5,0v72.552c0,0.524-0.424,0.948-0.948,0.948H0"/>
    <path fill="#FFFFFF" d="M50.358,42.596l1.963,3.977c0.099,0.2,0.289,0.338,0.51,0.37l4.389,0.638
      c0.555,0.081,0.777,0.763,0.375,1.155l-3.176,3.095c-0.16,0.156-0.232,0.38-0.195,0.599l0.75,4.371
      c0.095,0.553-0.486,0.975-0.982,0.714l-3.925-2.064c-0.197-0.104-0.433-0.104-0.63,0l-3.925,2.064
      c-0.497,0.261-1.077-0.161-0.982-0.714l0.75-4.371c0.038-0.22-0.035-0.444-0.195-0.599l-3.176-3.095
      c-0.402-0.392-0.18-1.074,0.375-1.155l4.389-0.638c0.221-0.032,0.411-0.171,0.51-0.37l1.963-3.977
      C49.392,42.093,50.11,42.093,50.358,42.596z"/>
  </symbol>
  <symbol id="steps" viewBox="0 0 20 20">
    <title>steps</title>
    <path d="M8.766,9.427C7.995,9.7,7.314,9.875,6.335,10.186C6.719,15.078,11.211,13.127,8.766,9.427z M8.544,8.539
      C8.557,7.86,8.522,7.204,8.81,6.558c0.327-0.693,0.379-1.301,0.198-2.307C8.679,2.421,7.984,1.28,7.044,1.03
      c-2.003-0.299-2.252,1.71-2.3,3.179c-0.111,0.822,0.57,4.341,1.393,4.937C6.947,8.934,7.741,8.727,8.544,8.539z M11.234,15.321
      c0.772,0.273,1.453,0.448,2.432,0.759C13.281,20.971,8.789,19.021,11.234,15.321z M11.456,14.433
      c-0.013-0.68,0.022-1.335-0.266-1.981c-0.327-0.693-0.379-1.301-0.198-2.307c0.329-1.83,1.024-2.971,1.964-3.222
      c2.003-0.299,2.252,1.71,2.3,3.179c0.111,0.822-0.57,4.341-1.393,4.937C13.053,14.828,12.259,14.621,11.456,14.433L11.456,14.433z"
      />
  </symbol>
  <symbol viewBox="0 0 32 32" id="icon-facebook">
    <title>facebook</title>
    <path d="M11.7 17.7V32h7V17.8h4.8l1.2-5.9h-5.9V7.5C18.7 6.9 19 6 20 6h3.4V0h-6.3c-2.2 0-5.4 2.7-5.4 5.5v6.1H8v6l3.7.1z" fill-rule="evenodd" clip-rule="evenodd" fill="#fff" />
  </symbol>
  <symbol viewBox="0 0 32 32" id="icon-gplus">
    <title>gplus</title>
    <path d="M16.8 25.7c0-.3 0-.5-.1-.8-.1-.2-.1-.5-.2-.7-.1-.2-.2-.4-.3-.7-.2-.2-.3-.4-.4-.6-.1-.2-.3-.3-.5-.6l-.5-.5c-.1-.1-.3-.3-.6-.5s-.5-.4-.6-.4-.3-.2-.6-.4-.5-.4-.6-.4h-1c-.7 0-1.4 0-2 .1-.7.1-1.4.2-2.1.5-.7.2-1.3.5-1.9.9s-1 .8-1.3 1.4c-.3.6-.5 1.3-.5 2.1 0 .9.2 1.7.7 2.3.5.7 1.1 1.2 1.8 1.6s1.5.7 2.3.9 1.6.3 2.4.3c.8 0 1.5-.1 2.2-.2.7-.2 1.3-.4 1.9-.8.6-.3 1.1-.8 1.4-1.4.4-.6.5-1.3.5-2.1zM14.5 9.1c0-.8-.1-1.6-.3-2.5-.2-.8-.5-1.6-.9-2.4-.4-.8-.9-1.5-1.6-2-.7-.6-1.5-.8-2.3-.8-1.2 0-2.1.4-2.8 1.3-.7.9-1 1.9-1 3.2 0 .6.1 1.2.2 1.9s.4 1.3.7 2c.3.7.7 1.3 1.1 1.8.4.5.9 1 1.5 1.3.6.3 1.2.5 1.9.5 1.2 0 2.1-.4 2.7-1.2.6-.8.8-1.8.8-3.1zM12 0h8.4l-2.6 1.5h-2.6c.9.6 1.6 1.4 2.1 2.4s.8 2.1.8 3.2c0 .9-.1 1.8-.4 2.5s-.7 1.3-1.1 1.8c-.4.4-.8.9-1.3 1.2-.4.4-.8.8-1.1 1.2-.3.4-.4.8-.4 1.3 0 .3.1.7.3 1 .2.3.5.6.8.9.3.3.7.6 1.1.9.4.3.8.7 1.2 1.1.4.4.8.8 1.1 1.3.3.5.6 1 .8 1.6.2.6.3 1.3.3 2 0 2.1-.9 3.9-2.7 5.4-1.9 1.7-4.6 2.5-8.1 2.5-.8 0-1.5-.1-2.3-.2-.8-.1-1.6-.3-2.3-.6-.8-.3-1.5-.7-2.1-1.1-.6-.4-1.1-1-1.5-1.7-.2-.6-.4-1.3-.4-2.2 0-.8.2-1.6.7-2.6.4-.8 1-1.5 1.8-2.1.8-.6 1.8-1.1 2.8-1.4 1-.3 2-.5 3-.7.9-.1 1.9-.2 2.9-.3-.8-1.1-1.2-2-1.2-2.9v-.5c0-.1.1-.3.1-.4 0-.1.1-.2.2-.4s.1-.3.1-.4c-.5.1-1 .1-1.3.1-1.9 0-3.5-.6-4.9-1.9-1.4-1.3-2-2.8-2-4.7C2.2 6 2.8 4.4 4 3 5.2 1.6 6.7.7 8.5.3 9.6.1 10.8 0 12 0zm20 4.9v2.5h-4.9v4.9h-2.5V7.4h-4.9V4.9h4.9V0h2.5v4.9H32z" fill="#fff" />
  </symbol>
  <symbol viewBox="0 0 32 32" id="icon-twitter">
    <title>twitter</title>
    <path d="M32 6.1c-1.2.5-2.4.9-3.8 1 1.4-.8 2.4-2.1 2.9-3.6-1.3.8-2.7 1.3-4.2 1.6C25.8 3.8 24 3 22.2 3c-3.6 0-6.6 2.9-6.6 6.6 0 .5.1 1 .2 1.5-5.5-.3-10.3-2.9-13.6-6.9-.6 1-.9 2.1-.9 3.3 0 2.3 1.2 4.3 2.9 5.5-1.1 0-2.1-.3-3-.8v.1c0 3.2 2.3 5.8 5.3 6.4-.6.1-1.1.2-1.7.2-.4 0-.8 0-1.2-.1.8 2.6 3.3 4.5 6.1 4.6-2.2 1.8-5.1 2.8-8.2 2.8-.5 0-1.1 0-1.6-.1 2.9 1.9 6.4 3 10.1 3 12.1 0 18.7-10 18.7-18.7v-.8C30 8.5 31.1 7.4 32 6.1z" fill="#fff" />
  </symbol>
</svg>

